<?xml version="1.0" standalone="no"?>
<!DOCTYPE svg PUBLIC "-//W3C//DTD SVG 1.1//EN" "http://www.w3.org/Graphics/SVG/1.1/DTD/svg11.dtd" >
<!--
2013-9-30: Created.
-->
<svg>
<metadata>
Created by iconfont
</metadata>
<defs>

<font id="supermapol-icons" horiz-adv-x="1024" >
  <font-face
    font-family="supermapol-icons"
    font-weight="500"
    font-stretch="normal"
    units-per-em="1024"
    ascent="896"
    descent="-128"
  />
    <missing-glyph />
    
    <glyph glyph-name="polygon-slongdash" unicode="&#59420;" d="M352-47.68H128a64 64 0 0 0-64 64V410.112a64 64 0 0 0 39.552 59.136l207.104 85.568a64 64 0 0 0 48.832-118.4L192 367.36v-286.976h160a64 64 0 1 0 0-128M839.552 416a64 64 0 0 0-64 64V608.32l-118.656-49.024a64 64 0 0 0-48.832 118.4L815.104 763.072a63.872 63.872 0 0 0 88.448-59.136v-224a64 64 0 0 0-64-64M839.552-47.68h-224a64 64 0 1 0 0 128h160V240.32a64 64 0 1 0 128 0V16.32a64 64 0 0 0-64-64"  horiz-adv-x="1024" />

    
    <glyph glyph-name="line-sdashdot" unicode="&#59421;" d="M104.711228 67.204734m45.254834 45.254834l113.137085 113.137085q45.254834 45.254834 90.509668 0l0 0q45.254834-45.254834 0-90.509668l-113.137085-113.137085q-45.254834-45.254834-90.509668 0l0 0q-45.254834 45.254834 0 90.509668ZM353.612815 316.106321m45.254834 45.254834l0 0q45.254834 45.254834 90.509668 0l0 0q45.254834-45.254834 0-90.509668l0 0q-45.254834-45.254834-90.509668 0l0 0q-45.254834 45.254834 0 90.509668ZM738.278904 700.77241m45.254834 45.254834l0 0q45.254834 45.254834 90.509668 0l0 0q45.254834-45.254834 0-90.509668l0 0q-45.254834-45.254834-90.509668 0l0 0q-45.254834 45.254834 0 90.509668ZM489.377317 451.870823m45.254834 45.254834l113.137085 113.137085q45.254834 45.254834 90.509668 0l0 0q45.254834-45.254834 0-90.509668l-113.137085-113.137085q-45.254834-45.254834-90.509668 0l0 0q-45.254834 45.254834 0 90.509668Z"  horiz-adv-x="1024" />

    
    <glyph glyph-name="line-slongdash" unicode="&#59422;" d="M104.711228 67.204734m45.254834 45.254834l181.019336 181.019336q45.254834 45.254834 90.509668 0l0 0q45.254834-45.254834 0-90.509668l-181.019336-181.019336q-45.254834-45.254834-90.509668 0l0 0q-45.254834 45.254834 0 90.509668ZM557.259568 519.753074m45.254834 45.254834l181.019336 181.019336q45.254834 45.254834 90.509668 0l0 0q45.254834-45.254834 0-90.509668l-181.019336-181.019336q-45.254834-45.254834-90.509668 0l0 0q-45.254834 45.254834 0 90.509668Z"  horiz-adv-x="1024" />

    
    <glyph glyph-name="polygon-sdashdot" unicode="&#59423;" d="M192 80.32v96a64 64 0 1 1-128 0v-160a64 64 0 0 1 64-64h64a64 64 0 1 1 0 128M456 543.04c-13.44 31.36-51.84 48-83.84 34.56l-135.744-51.072c-32.64-13.44-48.64-51.2-35.2-83.84 10.24-23.68 33.28-39.68 59.52-39.68 8.32 0 16.64 1.92 24.32 5.12l135.744 51.072c32.64 13.44 48.64 51.2 35.2 83.84M597.504 530.944c15.296 6.464 28.096 19.2 34.56 34.56 6.4 16 6.4 33.344 0 49.344-13.44 32-51.904 48-83.904 34.56a61.568 61.568 0 0 1-34.56-34.56c-6.4-16-6.4-33.28 0-48.64 9.6-24.32 33.28-39.68 58.88-39.68 8.32 0 16.64 1.28 24.96 4.48M839.68 352.512c-35.2 0-64-28.8-64-64 0-35.84 28.8-64 64-64s64 28.16 64 64c0 35.2-28.8 64-64 64M903.552 576.448V704A64.064 64.064 0 0 1 815.104 763.2L726.784 723.52a64 64 0 0 1 48.768-118.336v-29.184l0.128-0.64v-79.552c0-35.2 28.8-64 64-64s64 28.8 64 64v80l-0.128 0.64M839.552 144.32a64 64 0 0 1-64-64h-62.912l-0.96 0.192H623.36c-35.2 0-64-28.8-64-64s28.8-64 64-64h87.232l0.96-0.192h128a64 64 0 0 1 64 64v64a64 64 0 0 1-64 64M407.68 80.512c-35.2 0-64-28.8-64-64s28.8-64 64-64 64 28.8 64 64-28.8 64-64 64M128.064 274.88a64 64 0 1 1 0 128.064 64 64 0 0 1 0-128"  horiz-adv-x="1024" />

    
    <glyph glyph-name="polygon-sdot" unicode="&#59424;" d="M128-15.36c-3.84 0-8.32 0-12.096 1.28a83.84 83.84 0 0 0-12.224 3.2c-3.776 1.92-7.68 3.84-10.88 6.4a28.992 28.992 0 0 0-9.6 7.68c-12.16 12.16-19.2 28.8-19.2 45.44 0 16.64 7.04 33.28 19.2 44.8a42.24 42.24 0 0 0 9.6 8.32c3.2 2.56 7.104 4.48 10.88 5.76a63.616 63.616 0 0 0 69.76-14.08 62.464 62.464 0 0 0 0-90.24 62.208 62.208 0 0 0-45.44-18.56M64 245.76c0 35.2 28.8 63.36 64.64 63.36 35.264 0 63.36-28.16 63.36-63.36a63.744 63.744 0 0 0-63.36-64.64c-35.84 0-64.64 28.8-64.64 64.64M128 378.24a76.8 76.8 0 0 0-12.096 1.28 44.352 44.352 0 0 0-12.224 3.84 36.352 36.352 0 0 0-10.88 5.76A65.088 65.088 0 0 0 64 442.24c0 8.32 1.92 16.64 5.12 24.32 3.2 8.32 7.68 14.72 14.08 21.12 2.56 2.56 5.824 5.76 9.6 7.68 3.2 2.56 7.104 4.48 10.88 5.76a63.232 63.232 0 0 0 83.84-34.56c3.2-7.68 5.12-16 5.12-24.32 0-16.64-7.04-33.28-19.2-45.44-12.096-11.52-28.096-18.56-45.44-18.56M543.36 613.76c-13.44 32.64 1.92 69.76 34.56 83.84 32.64 13.44 70.4-2.56 83.84-35.2a63.552 63.552 0 0 0-34.56-83.2c-8.32-3.2-16.64-5.12-24.32-5.12-25.6 0-49.28 14.72-59.52 39.68M305.92 515.84c-13.44 32.64 2.56 69.76 35.2 83.84a63.872 63.872 0 0 0 83.2-35.2 63.552 63.552 0 0 0-34.56-83.2 64 64 0 0 0-24.32-5.12c-24.96 0-49.28 14.72-59.52 39.68M839.68 672c-3.84 0-8.32 0.64-12.16 1.28a38.592 38.592 0 0 0-12.16 3.84 35.584 35.584 0 0 0-10.88 5.76 40.896 40.896 0 0 0-9.6 8.32 62.464 62.464 0 0 0-19.2 44.8c0 8.32 1.92 16.64 5.12 24.96C784 768.64 788.48 775.68 794.88 781.44 797.44 784.64 800.64 787.2 804.48 789.12 807.68 791.68 811.52 793.6 815.36 795.52 819.2 796.8 823.04 798.08 827.52 798.72c21.12 4.48 42.88-2.56 57.6-17.28 5.76-5.76 10.24-12.8 14.08-20.48 3.2-8.32 4.48-16.64 4.48-24.96a64.576 64.576 0 0 0-64-64M775.68 506.88c0 35.2 28.8 64 64 64s64-28.8 64-64-28.8-64-64-64-64 28.8-64 64m0-229.12c0 35.2 28.8 64 64 64s64-28.8 64-64-28.8-64-64-64-64 28.8-64 64M839.68-15.36c-3.84 0-8.32 0-12.16 1.28-4.48 0.64-8.32 1.92-12.16 3.2-3.84 1.92-7.68 3.84-10.88 6.4a28.352 28.352 0 0 0-9.6 7.68 62.848 62.848 0 0 0 0 90.24C797.44 96.64 800.64 99.2 804.48 101.76 807.68 103.68 811.52 105.6 815.36 107.52 819.2 108.8 823.04 110.08 827.52 111.36c21.12 3.84 42.88-3.2 57.6-17.92 11.52-11.52 18.56-28.16 18.56-44.8 0-17.28-7.04-33.92-18.56-45.44-12.096-12.16-28.8-18.56-45.44-18.56M301.44 48.64c0 35.2 28.8 64 64 64s64-28.8 64-64-28.8-64-64-64-64 28.8-64 64m237.44 0c0 35.2 28.16 64 63.36 64 35.84 0 64.64-28.8 64.64-64s-28.8-64-64.64-64c-35.2 0-63.36 28.8-63.36 64"  horiz-adv-x="1024" />

    
    <glyph glyph-name="line-slongdashdot" unicode="&#59425;" d="M104.711228 67.204734m45.254834 45.254834l90.509668 90.509668q45.254834 45.254834 90.509668 0l0 0q45.254834-45.254834 0-90.509668l-90.509668-90.509668q-45.254834-45.254834-90.509668 0l0 0q-45.254834 45.254834 0 90.509668ZM421.495066 383.988572m45.254834 45.254834l0 0q45.254834 45.254834 90.509668 0l0 0q45.254834-45.254834 0-90.509668l0 0q-45.254834-45.254834-90.509668 0l0 0q-45.254834 45.254834 0 90.509668ZM647.769236 610.262742m45.254834 45.254834l90.509668 90.509668q45.254834 45.254834 90.509668 0l0 0q45.254834-45.254834 0-90.509668l-90.509668-90.509668q-45.254834-45.254834-90.509668 0l0 0q-45.254834 45.254834 0 90.509668Z"  horiz-adv-x="1024" />

    
    <glyph glyph-name="line-sdash" unicode="&#59426;" d="M104.711228 67.204734m45.254834 45.254834l90.509668 90.509668q45.254834 45.254834 90.509668 0l0 0q45.254834-45.254834 0-90.509668l-90.509668-90.509668q-45.254834-45.254834-90.509668 0l0 0q-45.254834 45.254834 0 90.509668ZM376.240232 338.733738m45.254834 45.254834l90.509668 90.509668q45.254834 45.254834 90.509668 0l0 0q45.254834-45.254834 0-90.509668l-90.509668-90.509668q-45.254834-45.254834-90.509668 0l0 0q-45.254834 45.254834 0 90.509668ZM647.769236 610.262742m45.254834 45.254834l90.509668 90.509668q45.254834 45.254834 90.509668 0l0 0q45.254834-45.254834 0-90.509668l-90.509668-90.509668q-45.254834-45.254834-90.509668 0l0 0q-45.254834 45.254834 0 90.509668Z"  horiz-adv-x="1024" />

    
    <glyph glyph-name="line-sdot" unicode="&#59427;" d="M104.691017 67.196362m33.941125 33.941125l0 0q33.941125 33.941125 67.882251 0l22.627417-22.627417q33.941125-33.941125 0-67.882251l0 0q-33.941125-33.941125-67.882251 0l-22.627417 22.627417q-33.941125 33.941125 0 67.882251ZM217.828102 180.333447m45.254834 45.254834l0 0q45.254834 45.254834 90.509668 0l0 0q45.254834-45.254834 0-90.509668l0 0q-45.254834-45.254834-90.509668 0l0 0q-45.254834 45.254834 0 90.509668ZM353.592604 316.097949m45.254834 45.254834l0 0q45.254834 45.254834 90.509668 0l0 0q45.254834-45.254834 0-90.509668l0 0q-45.254834-45.254834-90.509668 0l0 0q-45.254834 45.254834 0 90.509668ZM489.357106 451.862451m45.254834 45.254834l0 0q45.254834 45.254834 90.509668 0l0 0q45.254834-45.254834 0-90.509668l0 0q-45.254834-45.254834-90.509668 0l0 0q-45.254834 45.254834 0 90.509668ZM625.121608 587.626953m45.254833 45.254834l0 0q45.254834 45.254834 90.509668 0l0 0q45.254834-45.254834 0-90.509668l0 0q-45.254834-45.254834-90.509668 0l0 0q-45.254834 45.254834 0 90.509668ZM760.886109 723.391455m33.941126 33.941125l0 0q33.941125 33.941125 67.882251 0l22.627417-22.627417q33.941125-33.941125 0-67.882251l0 0q-33.941125-33.941125-67.882251 0l-22.627417 22.627417q-33.941125 33.941125 0 67.882251Z"  horiz-adv-x="1024" />

    
    <glyph glyph-name="polygon-slongdashdot" unicode="&#59428;" d="M128.064 93.44c-35.264 0-64-28.8-64-64 0-35.84 28.736-64 64-64 35.84 0 64 28.16 64 64 0 35.2-28.16 64-64 64M548.544 666.24L350.848 589.888c-16-6.4-28.16-19.2-34.56-34.56-6.4-16-6.4-33.28 0-49.28 9.6-23.68 33.28-39.68 58.88-39.68 8.32 0 16.64 1.92 24.32 5.12L597.184 547.84c24.32 9.6 39.68 32.64 39.68 58.24 0 8.96-1.28 17.28-4.48 24.96-13.44 32-51.84 48-83.84 35.2M839.744 620.8c35.2 0 64 28.8 64 64 0 35.84-28.8 64-64 64s-64-28.16-64-64c0-35.2 28.8-64 64-64M839.744 493.12c-35.2 0-64-28.8-64-64v-165.12c0-35.2 28.8-64 64-64s64 28.8 64 64v165.12c0 35.2-28.8 64-64 64M152.64 488.128a62.784 62.784 0 0 1-24.32 4.928L128.064 493.12C123.328 493.12 119.104 491.392 114.56 490.368 110.976 489.6 107.328 489.728 103.68 488.256L103.616 488.128a64.512 64.512 0 0 1-20.736-13.888c-2.56-2.56-3.904-5.952-6.016-8.832-2.688-3.84-5.888-7.296-7.744-11.712A63.552 63.552 0 0 1 64.064 429.312L64.064 429.12v-165.056c0-35.264 28.8-64 64-64s64 28.736 64 64V429.12c0 26.496-16.32 49.344-39.424 59.008M839.744 93.44c-35.2 0-64-28.8-64-64s28.8-64 64-64 64 28.8 64 64-28.8 64-64 64M570.944 93.44H397.504c-35.264 0-64-28.8-64-64s28.736-64 64-64h173.44c35.2 0 63.296 28.8 63.296 64s-28.16 64-63.36 64"  horiz-adv-x="1024" />

    
    <glyph glyph-name="polygon-sdash" unicode="&#59429;" d="M224-47.68H128a64 64 0 0 0-64 64v96a64 64 0 1 0 128 0v-32h32a64 64 0 1 0 0-128M128 250.112a64 64 0 0 0-64 64v96c0 25.92 15.616 49.28 39.552 59.136l88.768 36.672a64.064 64.064 0 0 0 48.896-118.4L192 367.36v-53.184a64 64 0 0 0-64-64M430.4 470.976a64 64 0 0 0-24.448 123.2l106.816 44.096a64.064 64.064 0 0 0 48.896-118.272l-106.88-44.16a64.576 64.576 0 0 0-24.384-4.864M839.552 544a64 64 0 0 0-64 64V608.32h-0.256A64.064 64.064 0 0 0 726.4 726.528L815.104 763.072a63.808 63.808 0 0 0 88.448-59.136v-96a64 64 0 0 0-64-64M839.552 246.592a64 64 0 0 0-64 64v99.2a64 64 0 1 0 128 0v-99.2a64 64 0 0 0-64-64M839.552-47.68h-96a64 64 0 1 0 0 128h32v32a64 64 0 1 0 128 0V16.32a64 64 0 0 0-64-64M535.744-47.68H431.808a64 64 0 1 0 0 128h103.936a64 64 0 1 0 0-128"  horiz-adv-x="1024" />

    
    <glyph glyph-name="adjust-order" unicode="&#59339;" d="M238.677333 741.290667a85.333333 85.333333 0 1 1 170.666667 0 85.333333 85.333333 0 0 1-170.666667 0z m375.978667 0a85.333333 85.333333 0 1 1 170.666667 0 85.333333 85.333333 0 0 1-170.666667 0zM238.677333 384a85.333333 85.333333 0 1 1 170.666667 0 85.333333 85.333333 0 0 1-170.666667 0z m375.978667 0a85.333333 85.333333 0 1 1 170.666667 0 85.333333 85.333333 0 0 1-170.666667 0z m-375.978667-357.376a85.333333 85.333333 0 1 1 170.666667 0 85.333333 85.333333 0 0 1-170.666667 0z m375.978667 0a85.333333 85.333333 0 1 1 170.666667 0 85.333333 85.333333 0 0 1-170.666667 0z"  horiz-adv-x="1024" />

    
    <glyph glyph-name="popup-set" unicode="&#59338;" d="M899.584 810.666667c45.141333 0 81.749333-38.229333 81.749333-85.333334v-298.666666h-85.333333V725.333333H85.333333v-597.333333h384v-85.333333H81.749333C36.693333 42.666667 0 80.896 0 128V725.333333c0 47.104 36.693333 85.333333 81.749333 85.333334h817.834667zM682.666667 493.226667v54.613333C682.666667 551.594667 680.021333 554.666667 676.693333 554.666667H176.64c-3.413333 0-5.973333-3.072-5.973333-6.826667v-54.613333c0-3.754667 2.645333-6.826667 5.973333-6.826667h500.053333c3.328 0 5.973333 3.072 5.973334 6.826667zM174.08 315.733333h291.84c1.877333 0 3.413333 3.072 3.413333 6.826667v54.613333c0 3.754667-1.536 6.826667-3.413333 6.826667H174.08c-1.877333 0-3.413333-3.072-3.413333-6.826667v-54.613333c0-3.754667 1.536-6.826667 3.413333-6.826667zM998.656 118.613333a50.858667 50.858667 0 0 0 0 75.605334 36.181333 36.181333 0 0 1 10.24 37.632 253.269333 253.269333 0 0 1-54.016 93.44 36.181333 36.181333 0 0 1-37.632 9.898666 50.858667 50.858667 0 0 0-65.536 37.888 36.181333 36.181333 0 0 1-27.477333 27.648 253.781333 253.781333 0 0 1-107.776 0 36.181333 36.181333 0 0 1-27.562667-27.648 50.858667 50.858667 0 0 0-65.450667-37.888 36.181333 36.181333 0 0 1-37.717333-9.898666 253.269333 253.269333 0 0 1-54.016-93.44 36.181333 36.181333 0 0 1 10.24-37.546667 50.858667 50.858667 0 0 0 0-75.690667 36.181333 36.181333 0 0 1-10.24-37.546666c11.093333-34.730667 29.525333-66.56 54.101333-93.525334a36.181333 36.181333 0 0 1 37.632-9.898666 50.858667 50.858667 0 0 0 65.450667-37.802667 36.181333 36.181333 0 0 1 27.562667-27.648c17.664-3.925333 35.669333-5.888 53.76-5.888h0.085333c18.090667 0 36.181333 1.962667 53.845333 5.888a36.181333 36.181333 0 0 1 27.562667 27.648 50.858667 50.858667 0 0 0 65.450667 37.802667c13.482667-4.266667 28.16-0.426667 37.717333 9.984 24.490667 26.88 42.922667 58.709333 54.016 93.44a36.181333 36.181333 0 0 1-10.24 37.546666z m-376.149333 37.802667c0 25.770667-8.704 50.773333-24.746667 70.997333 6.4 15.36 14.762667 29.781333 24.832 42.922667a114.432 114.432 0 0 1 122.88 70.997333c16.554667 2.133333 33.194667 2.133333 49.664 0 19.626667-49.322667 70.4-78.677333 122.88-70.997333 10.154667-13.141333 18.517333-27.562667 24.832-42.922667a114.432 114.432 0 0 1 0-141.994666c-6.314667-15.36-14.592-29.781333-24.746667-42.922667a114.432 114.432 0 0 1-122.88-70.997333 188.757333 188.757333 0 0 0-49.578666 0 114.432 114.432 0 0 1-122.88 70.997333 186.88 186.88 0 0 0-25.002667 42.922667c16.042667 20.224 24.746667 45.226667 24.746667 70.997333zM770.389333 72.704a81.578667 81.578667 0 1 0 0 163.157333 81.578667 81.578667 0 0 0 0-163.157333z m0 120.832a39.253333 39.253333 0 1 1 0-78.506667 39.253333 39.253333 0 0 1 0 78.506667z"  horiz-adv-x="1024" />

    
    <glyph glyph-name="jiazaishibai" unicode="&#59337;" d="M319.162182 502.155636c44.125091 0 79.802182 35.211636 79.802182 78.778182 0 43.543273-35.677091 78.754909-79.802182 78.754909s-79.778909-35.211636-79.778909-78.754909c0-43.566545 35.653818-78.778182 79.778909-78.778182z m538.298182-318.533818c-182.667636 111.988364-415.720727 111.988364-598.295273 0-17.873455-10.938182-24.087273-35.374545-14.033455-54.760727 9.960727-19.362909 32.465455-26.135273 50.338909-15.197091 160.465455 98.373818 365.149091 98.373818 525.661091 0 5.678545-3.537455 11.985455-5.189818 18.129455-5.189818 12.916364 0 25.437091 7.400727 32.232727 20.48 10.053818 19.293091 3.746909 43.706182-14.056727 54.667636zM957.486545 896H159.581091C71.493818 896 0 825.413818 0 738.443636v-708.887272C0-57.437091 71.493818-128 159.581091-128h797.928727C1045.597091-128 1117.090909-57.413818 1117.090909 29.556364V738.443636C1117.090909 825.437091 1045.597091 896 957.509818 896z m79.77891-866.443636c0-43.566545-35.653818-78.778182-79.77891-78.778182H159.581091c-44.125091 0-79.778909 35.211636-79.778909 78.754909V738.466909c0 43.543273 35.653818 78.754909 79.778909 78.754909h797.928727c44.125091 0 79.778909-35.211636 79.778909-78.754909v-708.933818zM797.928727 659.665455c-44.125091 0-79.802182-35.211636-79.802182-78.75491 0-43.566545 35.677091-78.778182 79.802182-78.778181s79.778909 35.211636 79.778909 78.778181c0 43.543273-35.653818 78.754909-79.778909 78.75491z"  horiz-adv-x="1117" />

    
    <glyph glyph-name="question-circle" unicode="&#59266;" d="M512 832C264.6 832 64 631.4 64 384s200.6-448 448-448 448 200.6 448 448S759.4 832 512 832z m0-820c-205.4 0-372 166.6-372 372s166.6 372 372 372 372-166.6 372-372-166.6-372-372-372zM623.6 579.3C593.6 605.6 554 620 512 620s-81.6-14.5-111.6-40.7C369.2 552 352 515.3 352 476v-7.6c0-4.4 3.6-8 8-8h48c4.4 0 8 3.6 8 8V476c0 44.1 43.1 80 96 80s96-35.9 96-80c0-31.1-22-59.6-56.1-72.7-21.2-8.1-39.2-22.3-52.1-40.9-13.1-19-19.9-41.8-19.9-64.9V276c0-4.4 3.6-8 8-8h48c4.4 0 8 3.6 8 8v22.7c0 19.7 12.4 37.7 30.9 44.8 59 22.7 97.1 74.7 97.1 132.5 0.1 39.3-17.1 76-48.3 103.3zM512 164m-40 0a40 40 0 1 1 80 0 40 40 0 1 1-80 0Z"  horiz-adv-x="1024" />

    
    <glyph glyph-name="current" unicode="&#58892;" d="M1024 384.000427a46.506628 46.506628 0 0 0-93.013256 0A418.986318 418.986318 0 0 1 512.000427 802.986744 46.506628 46.506628 0 0 0 512.000427 896a511.999573 511.999573 0 0 0 511.999573-511.999573zM257.024639 828.074723a46.506628 46.506628 0 0 0 46.421295-80.639933A418.644984 418.644984 0 0 1 93.099442 384.000427c0-74.069272 19.199984-145.322546 55.210621-208.127827a46.506628 46.506628 0 1 0-80.725266-46.335961A509.780909 509.780909 0 0 0 0.000853 384.000427 511.743574 511.743574 0 0 0 257.024639 828.074723z m-2.730664-886.612594a46.506628 46.506628 0 0 0 46.933294 80.383933c63.487947-36.949303 135.679887-56.746619 210.773158-56.74662a418.644984 418.644984 0 0 1 362.410364 208.554493 46.506628 46.506628 0 0 0 80.469267-46.762627A511.743574 511.743574 0 0 0 512.000427-127.999147a509.780909 509.780909 0 0 0-257.706452 69.461276zM512.000427 151.296621a232.703806 232.703806 0 1 0 0 465.407612 232.703806 232.703806 0 0 0 0-465.407612z"  horiz-adv-x="1024" />

    
    <glyph glyph-name="print" unicode="&#58891;" d="M796.444444 156.444444v-170.666666H227.555556v170.666666H56.888889V526.222222a28.615111 28.615111 0 0 0 28.444444 28.444445h853.333334a28.501333 28.501333 0 0 0 28.444444-28.444445V156.444444h-170.666667z m0 455.111112H227.555556V753.777778a28.615111 28.615111 0 0 0 28.444444 28.444444h512a28.501333 28.501333 0 0 0 28.444444-28.444444V611.555556z m-455.111111-341.333334v-170.666666h341.333334V270.222222H341.333333z m483.555556 84.650667a56.888889 56.888889 0 1 1 0 113.777778 56.888889 56.888889 0 0 1 0-113.777778z"  horiz-adv-x="1024" />

    
    <glyph glyph-name="bezier-layer" unicode="&#58890;" d="M790.016 787.008a64 64 0 1 0 0-128c-158.528 0-233.088-81.792-237.248-271.04l-0.192-16.96c0-265.792-99.2-416-296.576-416a64 64 0 1 0 0 128c109.376 0 165.12 79.36 168.448 269.824l0.128 18.176c0 267.968 126.72 416 365.44 416z"  horiz-adv-x="1024" />

    
    <glyph glyph-name="grid" unicode="&#58889;" d="M757.76 742.4C848.2304 742.4 921.6 668.3648 921.6 577.024v-386.048c0-91.3408-73.3696-165.376-163.84-165.376H266.24C175.7696 25.6 102.4 99.6352 102.4 190.976V577.024C102.4 668.3136 175.7696 742.4 266.24 742.4h491.52zM189.44 215.04a102.4 102.4 0 0 1 94.72-102.144l7.68-0.256h81.92v153.6H189.44v-51.2z m409.5488 51.2H424.96v-153.6h174.0288v153.6z m235.5712 0h-184.3712v-153.6H732.16a102.4 102.4 0 0 1 102.144 94.72l0.256 7.68v51.2z m0 51.2V445.44h-184.3712v-128H834.56z m-645.12 0h184.32V445.44H189.44v-128z m409.5488 128H424.96v-128h174.0288V445.44zM732.16 655.36h-81.9712v-158.72H834.56V552.96a102.4 102.4 0 0 1-102.4 102.4z m-358.4 0H291.84a102.4 102.4 0 0 1-102.144-94.72L189.44 552.96v-56.32h184.32V655.36z m225.2288 0H424.96v-158.72h174.0288V655.36z"  horiz-adv-x="1024" />

    
    <glyph glyph-name="plot" unicode="&#58880;" d="M224 825.6a57.6 57.6 0 0 0 57.152-50.368L281.6 768l-0.064-6.4H832a57.6 57.6 0 0 0 53.44-79.232l-3.2-6.4L772.992 480l109.376-195.904a57.6 57.6 0 0 0-43.136-85.248L832 198.4H281.536L281.6 0a57.6 57.6 0 0 0-114.752-7.232L166.4 0V768a57.6 57.6 0 0 0 57.6 57.6z m509.824-179.2H281.6v-332.8h452.288l-77.184 138.304a57.6 57.6 0 0 0-3.2 49.472l3.2 6.72L733.824 646.4z"  horiz-adv-x="1024" />

    
    <glyph glyph-name="text-layer1" unicode="&#58881;" d="M192 608a64 64 0 1 0 0 128h640a64 64 0 0 0 0-128H576v-576a64 64 0 0 0-128 0v576H192z"  horiz-adv-x="1024" />

    
    <glyph glyph-name="polygon-layer1" unicode="&#58886;" d="M919.488 659.584a128 128 0 0 0 8.512-45.952V96a128 128 0 0 0-128-128h-576a128 128 0 0 0-128 128V392.064a128 128 0 0 0 82.048 119.488l576 221.568a128 128 0 0 0 165.44-73.6z m-119.488-45.952l-576-221.568V96h576V613.632z"  horiz-adv-x="1024" />

    
    <glyph glyph-name="line-layer1" unicode="&#58887;" d="M783.232 745.792a64 64 0 0 0 96.32-83.968l-5.312-6.08-630.4-636.8a64 64 0 0 0-96.192 84.032l5.248 6.08 630.4 636.8z"  horiz-adv-x="1024" />

    
    <glyph glyph-name="point-layer1" unicode="&#58888;" d="M524.48 889.472a409.856 409.856 0 0 0 225.92-73.344 417.28 417.28 0 0 0 140.992-172.16 420.352 420.352 0 0 0 33.536-222.272 409.92 409.92 0 0 0-95.616-215.936l-215.68-281.728a128 128 0 0 0-203.264 0l-213.44 278.976a413.824 413.824 0 0 0-97.92 218.88 420.032 420.032 0 0 0 33.6 221.888 416.96 416.96 0 0 0 140.928 172.352A410.176 410.176 0 0 0 499.904 889.472z m-3.264-128h-18.432a281.92 281.92 0 0 1-155.712-50.112 289.216 289.216 0 0 1-97.6-119.68 292.032 292.032 0 0 1-23.424-154.24c6.848-54.912 30.208-107.136 70.208-153.856L512 1.856l218.048 284.48a285.696 285.696 0 0 1 67.904 150.912 292.288 292.288 0 0 1-23.424 154.496 289.472 289.472 0 0 1-97.6 119.616 281.856 281.856 0 0 1-155.648 50.112zM512 608a128 128 0 1 0 0-256 128 128 0 0 0 0 256z"  horiz-adv-x="1024" />

    
    <glyph glyph-name="data-updating" unicode="&#59302;" d="M693 520.4v51.2c0 3.53-1.88 6.4-4.21 6.4H335.21c-2.33 0-4.21-2.87-4.21-6.4v-51.2c0-3.53 1.88-6.4 4.21-6.4h353.58c2.33 0 4.21 2.87 4.21 6.4zM331.85 351.5h125.3c0.83 0 1.5 2.87 1.5 6.4v51.2c0 3.53-0.67 6.4-1.5 6.4h-125.3c-0.83 0-1.5-2.87-1.5-6.4v-51.2c0-3.53 0.65-6.4 1.5-6.4zM330 195.4c0-3.53 0.67-6.4 1.5-6.4h126c0.83 0 1.5 2.87 1.5 6.4v51.2c0 3.53-0.67 6.4-1.5 6.4h-126c-0.83 0-1.5-2.87-1.5-6.4zM220 745h584v-302a8 8 0 0 1 8-8h56a8 8 0 0 1 8 8V749a68 68 0 0 1-68 68H216.3c-37.66 0-68.3-30.91-68.3-68.91v-728.18c0-38 30.64-68.91 68.3-68.91H454a8 8 0 0 1 8 8v56a8 8 0 0 1-8 8H220zM966.19 181.35h-48a8 8 0 0 1-8-8.07v-1.64C910.2 78 834 1.78 740.35 1.78a169.75 169.75 0 0 0-126.65 56.69l29 22.35-98.39 26.12a8 8 0 0 1-10-7.75l0.22-101.79 28.43 21.92A233.85 233.85 0 0 1 974.2 171.64v1.77a8 8 0 0 1-8.01 7.94zM570.49 171.64c0 93.66 76.2 169.86 169.86 169.86a170.19 170.19 0 0 0 128-58.25l-30-23 98.32-26.34a8 8 0 0 1 10.07 7.73V343.43l-27.6-21.17a233.85 233.85 0 0 1-412.65-150.62v-4.32a8 8 0 0 1 8-7.79h48a8 8 0 0 1 8 8.21c0.02 1.26 0 2.6 0 3.9z"  horiz-adv-x="1024" />

    
    <glyph glyph-name="plotting-scale" unicode="&#59300;" d="M946.944 128V640H839.68v-227.584H785.92V469.333333h-53.589333v56.917334h-53.674667V640H571.477333v-512h107.264V412.416h53.674667v-56.832h53.589333V298.666667h53.674667v-170.666667h107.264zM136.533333 128h102.4V640H136.533333v-56.917333H85.333333v-56.832H34.133333V469.333333h102.4v-341.333333zM170.666667 896h682.666666v-102.4H170.666667zM0-25.6h1024V-128H0zM366.933333 554.666667h102.4v-102.4H366.933333zM366.933333 298.666667h102.4v-102.4H366.933333z"  horiz-adv-x="1024" />

    
    <glyph glyph-name="circle-layer" unicode="&#58885;" d="M512 832a448 448 0 1 0 0-896A448 448 0 0 0 512 832z m0-128a320 320 0 1 1 0-640A320 320 0 0 1 512 704z"  horiz-adv-x="1024" />

    
    <glyph glyph-name="rectangle-layer" unicode="&#58884;" d="M800 800a128 128 0 0 0 128-128v-576a128 128 0 0 0-128-128h-576a128 128 0 0 0-128 128v576a128 128 0 0 0 128 128h576z m0-128h-576v-576h576v576z"  horiz-adv-x="1024" />

    
    <glyph glyph-name="oval-layer" unicode="&#58883;" d="M512 736c282.752 0 512-157.568 512-352s-229.248-352-512-352S0 189.568 0 384s229.248 352 512 352z m0-128C291.904 608 128 495.296 128 384s163.904-224 384-224 384 112.704 384 224-163.904 224-384 224z"  horiz-adv-x="1024" />

    
    <glyph glyph-name="hexagon-layer" unicode="&#58882;" d="M480 855.424l-360.32-208a64 64 0 0 1-32-55.424v-416a64 64 0 0 1 32-55.424l360.32-208a64 64 0 0 1 64 0l360.32 208a64 64 0 0 1 32 55.424v416a64 64 0 0 1-32 55.424L544 855.424a64 64 0 0 1-64 0zM512 726.08l296.256-171.008v-342.08L512 41.984l-296.32 171.008V555.072L512 726.08z"  horiz-adv-x="1024" />

    
    <glyph glyph-name="share1" unicode="&#59120;" d="M787 276a144.94 144.94 0 0 1-118.89-62.09L375.17 323.5A147 147 0 0 1 376 339a144.9 144.9 0 0 1-5.81 40.67L634.54 536.4A144.87 144.87 0 0 1 737 494c80 0 145 65.05 145 145s-65 145-145 145-145-65.05-145-145a144.81 144.81 0 0 1 5.81-40.67L333.4 441.56A144.53 144.53 0 0 1 231 484c-79.95 0-145-65.05-145-145s65.05-145 145-145a144.94 144.94 0 0 1 118.89 62.09L642.83 146.5A147 147 0 0 1 642 131c0-80 65-145 145-145s145 65 145 145-65 145-145 145z m-50 432a69 69 0 1 0-69-69 69.07 69.07 0 0 0 69 69zM231 270a69 69 0 1 0 69 69 69.07 69.07 0 0 0-69-69z m556-208a69 69 0 1 0 69 69 69.07 69.07 0 0 0-69-69z"  horiz-adv-x="1024" />

    
    <glyph glyph-name="scan" unicode="&#59153;" d="M629 705h204v-204a8 8 0 0 1 8-8h60a8 8 0 0 1 8 8V711a70 70 0 0 1-70 70H629a8 8 0 0 1-8-8v-60a8 8 0 0 1 8-8zM123 493h60a8 8 0 0 1 8 8V705h204a8 8 0 0 1 8 8v60a8 8 0 0 1-8 8H185a70 70 0 0 1-70-70v-210a8 8 0 0 1 8-8zM395 63H191V267a8 8 0 0 1-8 8h-60a8 8 0 0 1-8-8v-210a70 70 0 0 1 70-70h210a8 8 0 0 1 8 8v60a8 8 0 0 1-8 8zM901 275h-60a8 8 0 0 1-8-8v-204H629a8 8 0 0 1-8-8v-60a8 8 0 0 1 8-8h210a70 70 0 0 1 70 70V267a8 8 0 0 1-8 8zM94 422m8 0l820 0q8 0 8-8l0-60q0-8-8-8l-820 0q-8 0-8 8l0 60q0 8 8 8Z"  horiz-adv-x="1024" />

    
    <glyph glyph-name="add-user" unicode="&#59230;" d="M766 300q9.36 0 18.48-0.9a396 396 0 0 1-117.55 76.61q-4.81 2-9.67 3.94a248.49 248.49 0 0 1 28 24.11 245 245 0 1 1-346.48 0 248.49 248.49 0 0 1 28-24.11q-4.85-1.9-9.67-3.94a397.68 397.68 0 0 1-243-358.56 8 8 0 0 1 8-8.15h60a8 8 0 0 1 8 7.83 322.17 322.17 0 0 0 494.06 264.41A186.82 186.82 0 0 0 766 300zM512 746c93.19 0 169-75.81 169-169s-75.81-169-169-169-169 75.81-169 169 75.81 169 169 169zM902 149h-84v84a8 8 0 0 1-8 8h-56a8 8 0 0 1-8-8v-84h-84a8 8 0 0 1-8-8v-56a8 8 0 0 1 8-8h84v-84a8 8 0 0 1 8-8h56a8 8 0 0 1 8 8v84h84a8 8 0 0 1 8 8v56a8 8 0 0 1-8 8z"  horiz-adv-x="1024" />

    
    <glyph glyph-name="D" unicode="&#59146;" d="M330 408.71v2a111.55 111.55 0 0 1 45.34 21.83 141.81 141.81 0 0 1 33 38.21 184.45 184.45 0 0 1 20.2 49.61 227.8 227.8 0 0 1 6.91 56.06q0 39.69-12.88 72.93t-36.13 57a160.35 160.35 0 0 1-55 36.72Q299.64 756 260.92 756a200.72 200.72 0 0 1-51.61-6.86 177.47 177.47 0 0 1-49.15-21.58 170.88 170.88 0 0 1-41.7-37.32Q100.1 667.6 88.2 636.83L165.63 613q12.88 30.78 35.73 49.63T255 681.5q24.81 0 43.2-10.46a89.89 89.89 0 0 0 29.78-26.88 117.31 117.31 0 0 0 16.87-36.84 156.16 156.16 0 0 0 5.42-40.32q0-58.76-29.66-91.61t-80.07-32.85h-26.7v-71.6h24.66q56.22 0 91.74-33.76t35.51-99.26a178.07 178.07 0 0 0-6.46-46.66A133.26 133.26 0 0 0 338.94 148a113.89 113.89 0 0 0-34.74-31.76q-20.86-12.43-49.64-12.41-42.69 0-70.48 24.82t-39.7 64.52L65 171.39q19.85-70.5 70-107.23t123.59-36.72q45.68 0 81.4 16.37a177.32 177.32 0 0 1 60.45 44.69q24.75 28.31 38.12 66a239.4 239.4 0 0 1 13.3 80.5q0 67.51-32.94 114.17T330 408.71zM887.58 660.91q-71.3 93.3-200.52 93.31H519.87v-726H686q129.24 0 201.05 92.8t71.79 269.17q0.03 177.39-71.26 270.72z m-34.53-394.28q-13.83-52.83-37.89-87.69t-57.35-52.3a151.2 151.2 0 0 0-71.17-17.42h-74.77v564h74.77a151.1 151.1 0 0 0 71.17-17.44q33.29-17.43 57.35-52.29t37.89-88.19q13.83-53.3 13.82-125.11 0-70.76-13.82-123.56z"  horiz-adv-x="1024" />

    
    <glyph glyph-name="sample-data" unicode="&#59144;" d="M862.3 465H595.7c-35.7 0-64.7-30.5-64.7-68v-397.3c0-20 10.8-37.9 28.17-46.7a49 49 0 0 1 51.38 4.32l3 2.19 115.84 128.87 115-128.68 3-2.2a49 49 0 0 1 51.42-4.44c17.42 8.79 28.24 26.7 28.24 46.73V397c-0.05 37.5-29.05 68-64.75 68zM855 55.85l-93.26 104.38-3 2.21a49.11 49.11 0 0 1-58.52 0.08l-3-2.19L603 55.49V393h252zM416.91 87.77h-245V724.11H691.2v-145.28a47.55 47.55 0 1 1 95.09 0V771.66a47.55 47.55 0 0 1-47.55 47.54h-614.4a47.55 47.55 0 0 1-47.54-47.54v-731.43a47.54 47.54 0 0 1 47.54-47.54h292.57a47.54 47.54 0 1 1 0 95.08zM607.09 566.86a36.58 36.58 0 0 1-36.58 36.57H277.94a36.57 36.57 0 1 1 0-73.14h292.57a36.57 36.57 0 0 1 36.58 36.57zM277.94 384h144.57a36.57 36.57 0 1 1 0 73.14H277.94a36.57 36.57 0 0 1 0-73.14zM277.94 237.71h146.29a36.58 36.58 0 0 1 0 73.15H277.94a36.58 36.58 0 0 1 0-73.15z"  horiz-adv-x="1024" />

    
    <glyph glyph-name="od-circle" unicode="&#59105;" d="M512 384m-320 0a320 320 0 1 1 640 0 320 320 0 1 1-640 0Z"  horiz-adv-x="1024" />

    
    <glyph glyph-name="od-diamond" unicode="&#59104;" d="M512 768l384-384-384-384-384 384z"  horiz-adv-x="1024" />

    
    <glyph glyph-name="od-arrow" unicode="&#59108;" d="M512 768l384-768-384 192-384-192z"  horiz-adv-x="1024" />

    
    <glyph glyph-name="od-rect" unicode="&#59102;" d="M192 704h640v-640H192z"  horiz-adv-x="1024" />

    
    <glyph glyph-name="od-roundrect" unicode="&#59103;" d="M192 704m128 0l384 0q128 0 128-128l0-384q0-128-128-128l-384 0q-128 0-128 128l0 384q0 128 128 128Z"  horiz-adv-x="1024" />

    
    <glyph glyph-name="od-pin" unicode="&#59106;" d="M696.256 709.12c-1.92 1.408-3.84 2.56-5.76 3.84a23.936 23.936 0 0 1-3.328 2.56l-7.68 4.672-4.096 2.496a316.544 316.544 0 0 1-63.872 29.312l-3.328 1.088a339.968 339.968 0 0 1-19.904 5.632l-3.328 0.768a342.016 342.016 0 0 1-21.12 4.288l-1.472 0.256a347.904 347.904 0 0 1-23.872 2.816l-3.52 0.256c-6.4 0.448-12.8 0.704-19.328 0.768-2.368 0.192-4.672 0.128-7.04 0h-1.024l-8.384-0.256a312.832 312.832 0 0 1-12.48-0.768l-4.48-0.384a344.192 344.192 0 0 1-45.888-7.68 27.072 27.072 0 0 1-4.288-1.344 320.896 320.896 0 0 1-38.72-12.672 319.36 319.36 0 0 1-78.208-45.696 22.848 22.848 0 0 1-3.328-2.304A324.224 324.224 0 0 1 192 444.032a326.4 326.4 0 0 1 77.632-211.264c2.112-2.368 20.416-22.272 31.424-32.192l189.056-191.36a30.72 30.72 0 0 1 43.776 0l189.056 191.36c11.072 9.92 29.44 29.824 31.424 32.192 0.256 0.32 0.64 0.576 0.832 0.896A326.4 326.4 0 0 1 832 444.032a325.44 325.44 0 0 1-135.744 265.088z"  horiz-adv-x="1024" />

    
    <glyph glyph-name="od-triangle" unicode="&#59107;" d="M512 704l384-640H128z"  horiz-adv-x="1024" />

    
    <glyph glyph-name="upload-myfiles" unicode="&#59099;" d="M899.657143 0a47.542857 47.542857 0 0 0-47.542857-47.542857h-658.285715a47.542857 47.542857 0 0 0-47.542857 47.542857V775.314286A47.542857 47.542857 0 0 0 193.828571 822.857143h658.285715a47.542857 47.542857 0 0 0 47.542857-47.542857v-775.314286zM804.571429 727.771429H241.371429v-680.228572H804.571429V727.771429zM354.742857 592.457143h336.457143a36.571429 36.571429 0 0 0 0-73.142857h-336.457143a36.571429 36.571429 0 0 0 0 73.142857z m0-175.542857h336.457143a36.571429 36.571429 0 0 0 0-73.142857h-336.457143a36.571429 36.571429 0 0 0 0 73.142857z m0-168.228572h336.457143a36.571429 36.571429 0 0 0 0-73.142857h-336.457143a36.571429 36.571429 0 0 0 0 73.142857z"  horiz-adv-x="1024" />

    
    <glyph glyph-name="upload-sharefiles" unicode="&#59101;" d="M832 192a128 128 0 1 1-122.148571 89.380571l-73.947429-46.372571a95.817143 95.817143 0 0 1-155.940571-74.971429 96.036571 96.036571 0 0 1 150.674285-78.994285l104.594286-74.825143a64.073143 64.073143 0 1 1 37.302857 52.077714l-104.301714 74.678857a96.256 96.256 0 0 1 1.536 47.762286l74.166857 46.445714c22.893714-21.796571 53.979429-35.181714 88.064-35.181714z m0 192a64.073143 64.073143 0 1 0-0.146286-128.146286A64.073143 64.073143 0 0 0 832 384z m-256-256a32.109714 32.109714 0 0 0-32.036571 32.036571 32.109714 32.109714 0 0 0 64 0c0-17.627429-14.336-32.036571-31.963429-32.036571zM171.885714 724.114286h519.314286v-145.261715a47.542857 47.542857 0 0 1 95.085714 0V771.657143a47.542857 47.542857 0 0 1-47.542857 47.542857H124.342857a47.542857 47.542857 0 0 1-47.542857-47.542857v-731.428572c0-26.258286 21.284571-47.542857 47.542857-47.542857h292.571429a47.542857 47.542857 0 1 1 0 95.085715H171.885714v636.342857zM241.371429 603.428571m36.571428 0l292.571429 0q36.571429 0 36.571428-36.571428l0 0q0-36.571429-36.571428-36.571429l-292.571429 0q-36.571429 0-36.571428 36.571429l0 0q0 36.571429 36.571428 36.571428ZM241.371429 457.142857m36.571428 0l292.571429 0q36.571429 0 36.571428-36.571428l0 0q0-36.571429-36.571428-36.571429l-292.571429 0q-36.571429 0-36.571428 36.571429l0 0q0 36.571429 36.571428 36.571428ZM277.942857 310.857143h146.285714a36.571429 36.571429 0 0 0 0-73.142857h-146.285714a36.571429 36.571429 0 0 0 0 73.142857z"  horiz-adv-x="1024" />

    
    <glyph glyph-name="share-info" unicode="&#59100;" d="M680.228571 149.942857c-21.942857 0-102.4-124.342857-153.6-124.342857-14.628571 0-14.628571 7.314286-14.628571 21.942857 0 21.942857 14.628571 58.514286 29.257143 80.457143l109.714286 285.257143c51.2 138.971429-14.628571 175.542857-80.457143 175.542857-87.771429 0-168.228571-43.885714-226.742857-95.085714-21.942857-21.942857-65.828571-95.085714-65.828572-117.028572 0-7.314286 7.314286-21.942857 21.942857-21.942857 29.257143 0 80.457143 138.971429 138.971429 138.971429 14.628571 0 29.257143-14.628571 14.628571-36.571429L343.771429 201.142857c-7.314286-21.942857-65.828571-109.714286-65.828572-175.542857 0-58.514286 36.571429-117.028571 95.085714-117.028571 153.6 0 329.142857 182.857143 329.142858 219.428571-7.314286 14.628571-14.628571 21.942857-21.942858 21.942857zM650.971429 859.428571c-65.828571 0-124.342857-51.2-124.342858-117.028571 0-58.514286 43.885714-102.4 102.4-102.4 65.828571 0 124.342857 51.2 124.342858 117.028571C753.371429 822.857143 709.485714 859.428571 650.971429 859.428571z"  horiz-adv-x="1024" />

    
    <glyph glyph-name="button-invisible" unicode="&#59098;" d="M512 61.62963c-214.433185 0-395.757037 271.17037-403.531852 282.548148L94.814815 365.037037l13.653333 20.859259C116.242963 397.274074 297.566815 668.444444 512 668.444444c214.433185 0 395.757037-271.17037 403.531852-282.548148L929.185185 365.037037l-13.653333-20.859259C907.757037 332.8 726.433185 61.62963 512 61.62963z m-303.407407 303.407407c42.021926-49.000296 169.984-189.62963 303.407407-189.62963s261.385481 140.629333 303.407407 189.62963c-42.021926 49.000296-169.984 189.62963-303.407407 189.62963s-261.385481-140.629333-303.407407-189.62963z m189.629629 0a113.777778 113.777778 0 1 0 227.555556 0 113.777778 113.777778 0 0 0-227.555556 0zM782.487704 670.189037l53.627259-53.627259L246.139259 26.548148 192.512 80.213333z"  horiz-adv-x="1024" />

    
    <glyph glyph-name="button-visible" unicode="&#59097;" d="M512 68.923077c-222.680615 0-410.978462 281.6-419.052308 293.415385L78.769231 384l14.178461 21.661538C101.021538 417.476923 289.319385 699.076923 512 699.076923c222.680615 0 410.978462-281.6 419.052308-293.415385L945.230769 384l-14.178461-21.661538C922.978462 350.523077 734.680615 68.923077 512 68.923077z m-315.076923 315.076923c43.638154-50.884923 176.521846-196.923077 315.076923-196.923077s271.438769 146.038154 315.076923 196.923077c-43.638154 50.884923-176.521846 196.923077-315.076923 196.923077s-271.438769-146.038154-315.076923-196.923077z m196.923077 0a118.153846 118.153846 0 1 0 236.307692 0 118.153846 118.153846 0 0 0-236.307692 0z"  horiz-adv-x="1024" />

    
    <glyph glyph-name="share" unicode="&#59096;" d="M853.568 55.87199999999996c0-37.504-65.792-72.128-101.952-72.128H184.256c-36.16 0-72.192 34.624-72.192 72.128V718.656c0 37.312 28.096 63.616 64.256 63.616L512 782.4639999999999V896L144.64 895.808C62.016 895.808 0.192 809.664 0.192 732.608v-713.856c0-80.768 63.616-146.56 142.208-146.56h666.688c82.816 0 158.144 68.672 158.144 146.56l-2.432 218.496h-111.232v-181.376zM740.992 783.04L1024 524.48l-283.008-252.032V440s-269.056 52.672-442.624-174.144c0 21.056 37.696 341.504 442.624 341.504V783.04z"  horiz-adv-x="1024" />

    
    <glyph glyph-name="save" unicode="&#59095;" d="M740.096 781.888l169.344-171.52v-623.872H115.072V781.888h625.024zM798.592 896H85.312C38.4 896 0 857.6 0 810.688v-853.376C0-89.60000000000002 38.4-128 85.312-128h853.376C985.6-128 1024-89.60000000000002 1024-42.68799999999999V665.984L798.592 896zM292.544 668.8h365.888V553.6H292.544V668.8zM512 99.58399999999995a171.2 171.2 0 0 0-170.688 170.624C341.312 364.15999999999997 418.112 440.96 512 440.96c93.888 0 170.688-76.8 170.688-170.688 0-93.824-76.8-170.624-170.688-170.624z"  horiz-adv-x="1024" />

    
    <glyph glyph-name="streaming-data" unicode="&#59094;" d="M873.61203 636.273189l34.244073-48.725398 1.362948-0.681474 40.547708 63.036353c20.955328 30.495965 44.040263 54.517927 56.477165 94.724898 24.19233 77.858414-33.051493 135.442975-108.865485 134.080027l-16.099826-2.725896a100.858165 100.858165 0 0 1-47.447633-29.133018 139.872556 139.872556 0 0 1-22.99975-35.181099c-14.310956-34.329257-3.322186-74.110307 11.840612-98.217453l50.940188-77.17694z m-16.014641 152.394642c7.496215 23.425672 23.681225 28.19599 46.766159 37.225522 72.57699 1.022211 73.854754-98.55819 6.985109-108.35438-34.158889-5.025871-64.740038 37.055153-53.751268 71.128858zM339.165977 32.487147c42.166209 57.243823 82.032443 102.391482 106.821063 178.801764 55.36977 170.794443-56.817902 310.922552-229.060477 308.026287-13.459113-5.111056-33.39223-3.40737-46.766159-7.496215-40.121787-11.925797-78.36952-35.095915-101.965561-63.632642-20.529407-24.873804-39.18476-49.236503-52.303136-81.862075-30.666334-76.410282-8.262873-157.164961 25.810831-211.256967a3303.445637 3303.445637 0 0 1 122.835704-183.486898l68.488146-98.217453 2.044422-1.362948 42.592131 67.040013c20.444223 31.688545 39.355129 63.462274 61.503036 93.447134zM120.668348 318.876633c11.329507 35.1811 38.077365 62.525247 71.895516 75.813992 10.733217 4.259213 23.681225 3.066633 35.607021 7.496215 79.647284 0.425921 147.113219-77.943599 113.806173-161.168622-16.440562-41.143998-48.043923-69.936278-99.15448-77.858414-77.943599-12.096165-146.516929 80.073205-122.15423 155.716829zM621.892539 501.426504c-0.255553 0.170369 90.124948 28.621912 271.141502 85.439813l-28.79228 31.518177-368.336744-78.795442 207.849597-343.888861-258.619416-62.951168L267.526014-126.211131H256.537244l755.328841 223.267948C760.402147 353.80218 630.410965 488.648864 621.892539 501.426504z"  horiz-adv-x="1024" />

    
    <glyph glyph-name="user-defined" unicode="&#59093;" d="M867.766857 716.8a109.714286 109.714286 0 0 0 8.045714-41.398857c0-7.826286-1.462857-15.579429-4.461714-23.405714a71.826286 71.826286 0 0 0-14.409143-22.528c-7.168-7.168-13.677714-13.458286-19.382857-18.870858-5.705143-5.412571-10.605714-10.24-14.774857-14.409142a240.859429 240.859429 0 0 0-13.531429-12.580572l-168.301714 168.228572 25.6 23.917714c9.947429 9.289143 18.212571 16.603429 24.795429 22.089143a79.36 79.36 0 0 0 52.662857 17.554285c8.704-0.365714 17.115429-1.682286 25.161143-4.096 8.045714-2.413714 15.140571-5.12 21.211428-8.045714 12.580571-6.656 26.477714-18.212571 41.837715-34.669714 15.286857-16.530286 27.136-33.792 35.547428-51.785143zM166.619429 277.650286c3.657143 3.584 11.995429 12.141714 25.234285 25.6 13.165714 13.531429 29.696 30.208 49.517715 49.956571l65.682285 65.682286 72.923429 72.923428L573.44 685.275429l168.301714-169.179429-193.462857-193.462857-72.045714-72.923429c-23.990857-23.405714-45.568-44.836571-64.804572-64.365714-19.163429-19.456-35.108571-35.547429-47.689142-48.128a379.172571 379.172571 0 0 0-43.154286-38.692571 112.201143 112.201143 0 0 0-24.356572-14.409143 393.142857 393.142857 0 0 0-36.864-15.286857c-16.237714-5.997714-33.133714-11.849143-50.834285-17.554286-17.700571-5.705143-34.523429-10.678857-50.468572-14.848-15.872-4.169143-27.721143-6.875429-35.474285-8.045714-16.237714-1.828571-27.062857 0.585143-32.402286 7.168-5.412571 6.582857-6.948571 17.700571-4.534857 33.28 1.243429 8.411429 4.096 20.553143 8.557714 36.498285 4.681143 16.530286 9.508571 32.987429 14.409143 49.444572 5.12 17.115429 10.020571 32.914286 14.848 47.250285 4.827429 14.409143 8.704 24.283429 11.702857 29.696 3.584 8.411429 7.606857 16.091429 12.141714 22.966858 4.534857 6.875429 10.971429 14.555429 19.309715 22.966857z m300.105142-169.764572h80.457143v-80.091428h-80.457143v80.091428z m163.547429 0h80.457143v-80.091428h-80.457143v80.091428z m164.205714 0h80.457143v-80.091428h-80.457143v80.091428z"  horiz-adv-x="1024" />

    
    <glyph glyph-name="overlay" unicode="&#59092;" d="M665.6 35.413333V639.402667l-298.666667 67.584v-603.989334l298.666667-67.584z m0-69.546666l-298.666667 67.584-298.666666-67.584V708.949333L366.933333 776.533333l298.666667-67.584 298.666667 67.584v-743.082666l-298.666667-67.584z"  horiz-adv-x="1024" />

    
    <glyph glyph-name="out-head-pic" unicode="&#59090;" d="M64 384C64 631.424 264.576 832 512 832s448-200.576 448-448-200.576-448-448-448S64 136.576 64 384z m610.72-185.504c-53.12 23.072-72.544 58.976-78.464 89.92 38.272 30.816 68.736 80.064 85.504 133.12 17.216 21.984 27.264 44.864 27.264 64.256 0 13.28-4.832 22.88-13.28 30.016-2.816 112.704-82.624 203.2-181.312 204.608-0.768 0-1.504 0.128-2.304 0.128l-0.896-0.064c-98.048-0.544-177.728-89.12-182.496-200.352-12.288-7.36-19.392-18.144-19.392-34.336 0-22.816 13.824-50.464 37.056-75.744 16.48-46.272 43.328-88.736 76.48-117.344-4.928-31.872-23.648-70.08-79.232-94.208-30.016-13.056-84.896-24.768-108.576-36.864 60.672-66.304 175.552-108.032 272.384-108.512l1.376-0.032h0.352c97.536 0 213.12 41.856 274.112 108.544-23.68 12.096-78.56 23.808-108.576 36.864z"  horiz-adv-x="1024" />

    
    <glyph glyph-name="in-head-pic" unicode="&#59091;" d="M64.224 386.816c0 245.76 199.2 444.96 444.96 444.96s444.992-199.232 444.992-444.96c0-245.76-199.232-444.992-444.992-444.992-245.76 0-444.96 199.232-444.96 444.992z m610.496-188.32c-53.12 23.072-72.544 58.976-78.464 89.92 38.272 30.816 68.736 80.064 85.504 133.12 17.216 21.984 27.264 44.864 27.264 64.256 0 13.28-4.832 22.88-13.28 30.016-2.816 112.704-82.624 203.2-181.312 204.608-0.768 0-1.504 0.128-2.304 0.128l-0.896-0.064c-98.048-0.544-177.728-89.12-182.496-200.352-12.288-7.36-19.392-18.144-19.392-34.336 0-22.816 13.824-50.464 37.056-75.744 16.48-46.272 43.328-88.736 76.48-117.344-4.928-31.872-23.648-70.08-79.232-94.208-30.016-13.056-84.896-24.768-108.576-36.864 60.672-66.304 175.552-108.032 272.384-108.512l1.376-0.032h0.352c97.536 0 213.12 41.856 274.112 108.544-23.68 12.096-78.56 23.808-108.576 36.864z"  horiz-adv-x="1024" />

    
    <glyph glyph-name="share-whitelogo" unicode="&#59089;" d="M59.818667 764.842667l206.378666 51.2a39.381333 39.381333 0 0 0 48.896-38.186667V77.226667c0-18.133333-12.373333-33.877333-29.909333-38.229334l-187.434667-46.506666A78.762667 78.762667 0 0 0 0 68.906667V688.426667c0 36.181333 24.661333 67.712 59.818667 76.416zM403.2 816.128l236.330667-57.856a39.381333 39.381333 0 0 0 29.994666-38.272v-690.474667a39.381333 39.381333 0 0 0-48.725333-38.272L384.426667 49.109333a39.381333 39.381333 0 0 0-29.994667 38.272V777.856a39.381333 39.381333 0 0 0 48.725333 38.272zM738.816 768.426667L926.293333 814.933333A78.762667 78.762667 0 0 0 1024 738.432v-619.52c0-36.181333-24.661333-67.712-59.818667-76.416l-206.378666-51.2a39.381333 39.381333 0 0 0-48.896 38.186667V730.197333c0 18.090667 12.373333 33.834667 29.909333 38.186667z"  horiz-adv-x="1024" />

    
    <glyph glyph-name="textbox-maxwidth" unicode="&#59088;" d="M913.088 831.808H110.912C49.92 831.808 0.384 783.232 0.384 723.2v-678.528c0-59.84 49.408-108.544 110.528-108.544h802.176c60.992 0 110.528 48.64 110.528 108.544V723.264c0 59.904-49.408 108.544-110.528 108.544z m27.52-759.872a54.848 54.848 0 0 0-55.296-54.272H138.688a54.848 54.848 0 0 0-55.296 54.272V696.192c0 29.952 24.768 54.272 55.296 54.272h746.624c30.528 0 55.36-24.32 55.36-54.272v-624.256zM455.36 438.784c-61.248-0.128-44.928-0.704-106.304-0.896-5.504 0-10.88 0.64-16.32 1.536-5.376 0.896-8.576 4.608-9.6 10.048a73.536 73.536 0 0 0-0.896 9.92c-0.64 19.968-1.024 39.808-1.6 59.584a67.008 67.008 0 0 1-1.472 12.992c-2.368 8.832-9.28 12.928-17.984 11.52-7.936-1.28-14.144-5.888-20.288-10.88-20.16-16.512-40.064-33.088-60.096-49.6-17.92-14.912-36.16-29.44-54.272-44.48-13.824-11.584-27.392-23.488-41.088-35.392a32 32 0 0 1-6.272-7.936 19.584 19.584 0 0 1 1.408-24.192c2.816-2.944 5.44-5.696 7.808-8.384 14.08-11.584 28.16-23.04 41.984-34.496 18.816-15.552 37.504-31.104 56.512-46.464l64.768-52.48c1.28-1.024 2.816-1.792 4.224-2.56 12.544-6.528 22.528-1.536 24.768 12.928 0.576 4.16 0.832 8.32 0.832 12.224l0.448 46.528c0.192 16.576 3.84 21.312 19.584 23.616 6.912 1.024 14.08 1.216 21.056 1.216 59.456 0.448 41.408 0.64 100.928 1.216 5.12 0 10.432 1.344 15.36 2.752 12.992 3.328 19.328 12.928 20.032 26.048 0.896 19.968 0.896 39.808 0.448 59.584a24.64 24.64 0 0 1-21.76 24.576 120.704 120.704 0 0 1-22.208 1.472z m393.856 5.312c-18.688 15.36-37.376 31.04-56.256 46.272-19.776 16-39.552 32-59.52 47.808a31.36 31.36 0 0 1-6.848 3.968c-10.304 4.224-18.56 0.256-21.248-11.008a72.512 72.512 0 0 1-1.6-14.912c-0.32-15.488-0.448-31.04-0.576-46.4-0.192-17.472-4.736-22.656-21.504-24.512a167.68 167.68 0 0 0-19.584-0.896c-59.328-0.448-41.152-0.64-100.48-1.216a53.248 53.248 0 0 1-15.488-2.752c-13.248-4.224-19.584-12.16-20.16-26.624-0.768-19.456-0.896-38.912-0.448-58.432a24.96 24.96 0 0 1 22.08-25.088c7.36-1.216 14.72-1.536 22.208-1.536 60.8 0.192 44.416 0.768 105.216 1.088 4.16 0 8.256 0 12.288-0.448 11.136-1.408 14.72-5.376 15.296-16.896l1.024-34.56c0.256-10.944 0.448-21.888 0.832-33.024 0.896-19.328 13.184-26.624 29.184-16.768 9.6 5.952 17.92 13.44 26.816 20.544l56.832 46.72c20.928 17.408 41.856 34.56 62.72 51.904 6.528 5.504 12.8 10.944 19.008 16.64a40.96 40.96 0 0 1 6.656 8.192 19.712 19.712 0 0 1-1.088 24.064c-2.304 3.008-4.928 5.76-7.488 8.64l-47.872 39.232z"  horiz-adv-x="1024" />

    
    <glyph glyph-name="query" unicode="&#59087;" d="M512 894.976C229.229714 894.976 0 666.185143 0 384c0-282.185143 229.229714-510.976 512-510.976S1024 101.814857 1024 384C1024 666.185143 794.770286 894.976 512 894.976z m49.737143-805.814857a25.6 25.6 0 0 0-25.6-25.6H459.337143a25.6 25.6 0 0 0-25.6 25.6V165.814857a25.6 25.6 0 0 0 25.6 25.526857h76.8a25.6 25.6 0 0 0 25.6-25.6v-76.580571z m126.829714 351.670857c-10.24-14.628571-33.645714-33.28-62.902857-56.027429l-32.402286-22.381714c-15.725714-12.141714-29.696-26.331429-34.816-42.569143a130.194286 130.194286 0 0 1-3.949714-24.429714c-0.512-4.973714-4.900571-15.067429-15.286857-15.067429h-83.382857c-13.458286 0-15.872 10.605714-15.652572 15.798858 1.462857 33.938286 4.608 64.073143 18.432 80.310857 28.086857 32.841143 91.940571 73.728 91.940572 73.728 9.728 7.314286 17.554286 15.286857 23.552 23.917714 10.825143 14.921143 19.748571 31.232 19.748571 49.152 0 20.48-5.997714 39.277714-18.066286 56.173714-12.068571 16.896-34.084571 25.380571-66.048 25.380572-31.451429 0-53.686857-10.459429-66.852571-31.232-9.728-15.36-15.798857-29.549714-18.285714-44.909715-0.950857-5.485714-4.388571-16.969143-16.091429-16.969142H327.168c-17.261714 0-21.065143 11.190857-20.626286 16.603428 6.290286 68.022857 32.914286 114.468571 80.018286 144.310857 31.963429 20.48 71.387429 30.866286 118.125714 30.866286 61.366857 0 112.347429-14.628571 152.941715-43.885714 40.594286-29.257143 60.928-72.484571 60.928-129.901715 0-35.108571-12.434286-64.804571-29.988572-88.868571z"  horiz-adv-x="1024" />

    
    <glyph glyph-name="font-color" unicode="&#59074;" d="M495.872 832L244.224 160h119.68l52.224 156.8h255.744l56.32-156.8h119.68L596.288 832H495.872zM544 689.152l92.16-278.528H447.744L544 689.216z"  horiz-adv-x="1024" />

    
    <glyph glyph-name="bold" unicode="&#59075;" d="M384 397.824h208.896c30.72 0 56.32 8.704 76.8 26.112 20.48 17.408 30.72 42.496 30.72 75.264 0 36.864-9.216 62.784-27.648 77.824-18.432 15.04-45.056 22.528-79.872 22.528H384v-201.728zM256 704h355.328c65.536 0 118.08-15.04 157.696-45.056 39.616-30.08 59.392-75.456 59.392-136.192 0-36.864-9.024-68.48-27.136-94.72-18.112-26.24-43.84-46.592-77.312-60.928v-2.048c45.056-9.6 79.168-30.912 102.4-64s34.816-74.56 34.816-124.416c0-28.672-5.12-55.488-15.36-80.384-10.24-24.96-26.24-46.4-48.128-64.512-21.824-18.112-49.856-32.448-83.968-43.008-34.112-10.56-74.752-15.872-121.856-15.872H256V704z m128-626.688h226.304c38.912 0 69.12 10.048 90.624 30.208 21.504 20.16 32.256 48.64 32.256 85.504 0 36.16-10.752 64-32.256 83.456-21.504 19.456-51.712 29.184-90.624 29.184H384v-228.352z"  horiz-adv-x="1024" />

    
    <glyph glyph-name="italics" unicode="&#59076;" d="M616.512 576l-79.04-448H704v-128H256v128h151.488l79.04 448H320V704h448v-128H616.512z"  horiz-adv-x="1024" />

    
    <glyph glyph-name="font" unicode="&#59077;" d="M875.264 0h-106.688a20.608 20.608 0 0 0-19.328 13.568l-77.44 206.208H404.48l-72.832-205.76a20.736 20.736 0 0 0-19.456-14.016H212.736a20.8 20.8 0 0 0-17.152 9.216 21.696 21.696 0 0 0-2.176 19.648L465.216 754.432A20.672 20.672 0 0 0 484.608 768h100.928c8.32 0 16-5.184 19.2-13.184l289.728-725.504a21.44 21.44 0 0 0-1.984-19.84 20.672 20.672 0 0 0-17.216-9.472zM446.848 340.416h180.224l-63.36 172.224c-10.56 28.8-19.968 55.296-28.096 79.36-6.272-22.528-13.44-44.992-21.44-67.328l-67.328-184.32z"  horiz-adv-x="1024" />

    
    <glyph glyph-name="justify-align" unicode="&#59078;" d="M128 384V512h768v-128H128z m0 192V704h768v-128H128z m0-576v128h768v-128H128z m768 320v-128H128V320h768z"  horiz-adv-x="1024" />

    
    <glyph glyph-name="middle-alignmen" unicode="&#59079;" d="M256 384V512h512v-128H256zM128 576V704h768v-128H128z m0-576v128h768v-128H128z m640 320v-128H256V320h512z"  horiz-adv-x="1024" />

    
    <glyph glyph-name="font-size" unicode="&#59080;" d="M261.504 293.632l103.68 342.848 104.064-342.848H261.504M458.688 768h-158.08L64 0h109.632l55.936 182.784H503.68L560.64 0h137.28L458.688 768m248.576-590.08l60.16 163.84 60.224-163.84h-120.384m114.304 240.128h-91.584l-73.6-203.456 31.872-102.464 0.512 1.472h158.784l33.024-105.792H960l-138.432 410.24"  horiz-adv-x="1024" />

    
    <glyph glyph-name="strikeout" unicode="&#59081;" d="M332.48 384C285.504 424.192 256 480.448 256 544 256 670.528 372.928 768 512 768s256-97.472 256-224h-128C640 594.176 584.96 640 512 640c-72.96 0-128-45.824-128-96S439.04 448 512 448c69.248 0 132.928-24.128 179.52-64H832v-64h-88.32c15.552-28.864 24.32-61.376 24.32-96 0-126.528-116.928-224-256-224s-256 97.472-256 224h128c0-50.176 55.04-96 128-96 72.96 0 128 45.824 128 96S584.96 320 512 320H256V384h76.48z"  horiz-adv-x="1024" />

    
    <glyph glyph-name="text-layer" unicode="&#59082;" d="M576 640v-768H448V640H64V832h896v-192H576z"  horiz-adv-x="1024" />

    
    <glyph glyph-name="right-alignment" unicode="&#59083;" d="M384 576V704h512v-128H384z m128-192V512h384v-128H512z m-384-384v128h768v-128H128z m768 320v-128H384V320h512z"  horiz-adv-x="1024" />

    
    <glyph glyph-name="left-alignment" unicode="&#59084;" d="M128 576V704h512v-128H128z m0-192V512h384v-128H128z m0-384v128h768v-128H128z m512 320v-128H128V320h512z"  horiz-adv-x="1024" />

    
    <glyph glyph-name="transparent-backgrou" unicode="&#59085;" d="M220.8 832L64 675.2v-71.168L291.968 832H220.864z m193.344 0L64 481.856v-71.168L485.312 832H414.08z m193.28 0L64 288.512v-71.104L678.592 832H607.488z m193.344 0L64 95.232v-71.168L871.936 832h-71.168zM960 795.392a44.8 44.8 0 0 1-9.792-7.296L100.672-61.44c-0.832-0.768-1.216-1.728-1.92-2.56h70.464L960 726.784V795.392z m0-190.784L291.392-64h71.168L960 533.44V604.608z m0-193.28L484.736-64h71.104L960 340.16V411.264z m0-193.344L678.016-64h71.168L960 146.816v71.168z"  horiz-adv-x="1024" />

    
    <glyph glyph-name="underline" unicode="&#59086;" d="M640 704h128v-358.4c0-119.296-92.16-217.6-208-217.6h-96C348.16 128 256 226.304 256 345.6V704h128v-358.4c0-50.368 36.8-89.6 80-89.6h96C603.2 256 640 295.232 640 345.6V704zM256 64h512v-64H256v64z"  horiz-adv-x="1024" />

    
    <glyph glyph-name="close-legend" unicode="&#59073;" d="M643.145143 586.898286L512 455.68 380.854857 586.898286l-71.68-71.753143L440.173714 384 309.101714 252.854857l71.753143-71.68L512 312.173714l131.145143-131.145143 71.68 71.753143L583.826286 384l131.145143 131.145143zM512 891.172571A507.099429 507.099429 0 0 1 4.754286 384 507.099429 507.099429 0 0 1 512-123.245714 507.099429 507.099429 0 0 1 1019.245714 384 507.099429 507.099429 0 0 1 512 891.245714z m0-912.969142A406.308571 406.308571 0 0 0 106.203429 384 406.308571 406.308571 0 0 0 512 789.796571 406.308571 406.308571 0 0 0 917.796571 384 406.308571 406.308571 0 0 0 512-21.796571z"  horiz-adv-x="1024" />

    
    <glyph glyph-name="legend-fold" unicode="&#59068;" d="M512 676.571429a60.635429 60.635429 0 0 1-43.446857-18.432l-377.417143-386.194286a63.926857 63.926857 0 0 1 0-88.941714 60.489143 60.489143 0 0 1 86.966857 0L512 524.726857l333.897143-341.723428a60.489143 60.489143 0 0 1 86.966857 0 63.926857 63.926857 0 0 1 0 88.941714l-377.417143 386.194286A60.562286 60.562286 0 0 1 512 676.571429z"  horiz-adv-x="1024" />

    
    <glyph glyph-name="legend-unfold" unicode="&#59069;" d="M512 91.428571a60.635429 60.635429 0 0 0-43.446857 18.432l-377.417143 386.194286a63.926857 63.926857 0 0 0 0 88.941714 60.489143 60.489143 0 0 0 86.966857 0L512 243.273143l333.897143 341.723428a60.489143 60.489143 0 0 0 86.966857 0 63.926857 63.926857 0 0 0 0-88.941714l-377.417143-386.194286A60.562286 60.562286 0 0 0 512 91.428571z"  horiz-adv-x="1024" />

    
    <glyph glyph-name="legend-big" unicode="&#59070;" d="M307.2 486.4h102.4V588.8H307.2z m0-153.6h102.4V435.2H307.2z m0-153.6h102.4v102.4H307.2z m153.6 307.2h256V588.8H460.8z m307.2 307.2H256a153.6 153.6 0 0 1-153.6-153.6v-512a153.6 153.6 0 0 1 153.6-153.6h512a153.6 153.6 0 0 1 153.6 153.6V640a153.6 153.6 0 0 1-153.6 153.6z m51.2-665.6a51.2 51.2 0 0 0-51.2-51.2H256a51.2 51.2 0 0 0-51.2 51.2V640a51.2 51.2 0 0 0 51.2 51.2h512a51.2 51.2 0 0 0 51.2-51.2z m-358.4 204.8h256V435.2H460.8z m0-153.6h256v102.4H460.8z"  horiz-adv-x="1024" />

    
    <glyph glyph-name="attribute" unicode="&#59071;" d="M1024 511.341714V724.626286C1024 803.108571 958.464 866.742857 877.714286 866.742857H146.285714C65.536 866.742857 0 803.108571 0 724.626286v-710.509715C0-64.365714 65.536-128 146.285714-128h731.428572c80.749714 0 146.285714 63.634286 146.285714 142.116571zM94.573714 774.875429c13.677714 13.385143 32.329143 20.918857 51.785143 20.845714h731.501714c19.456 0 38.034286-7.533714 51.712-20.845714 13.750857-13.385143 21.357714-31.451429 21.357715-50.322286v-142.189714H73.069714V724.553143c0 18.870857 7.68 37.010286 21.504 50.322286z m307.565715-512.219429v248.685714h219.721142v-248.685714z m219.721142-70.948571v-248.685715H402.139429v248.685715z m-292.790857 70.948571H73.142857v248.685714h256z m-234.496-298.934857a69.485714 69.485714 0 0 0-21.504 50.176V191.634286h256v-248.685715H146.358857a73.874286 73.874286 0 0 0-51.785143 20.772572zM950.857143 13.897143c0-18.797714-7.68-36.864-21.357714-50.176s-32.329143-20.772571-51.712-20.699429H694.930286v248.685715H950.857143z m0 248.758857H694.857143v248.685714H950.857143z"  horiz-adv-x="1024" />

    
    <glyph glyph-name="legend-small" unicode="&#59072;" d="M273.346851 185.564279c-19.017061 0-38.107265-19.163346-38.107265-38.399835s19.017061-38.399835 38.107265-38.399836 38.107265 19.236489 38.107266 38.399836c0 25.59989-12.65366 38.399835-38.107266 38.399835z m0 473.59797c-19.017061 0-38.107265-19.163346-38.107265-38.399835s19.017061-38.399835 38.107265-38.399836 38.107265 19.236489 38.107266 38.399836-12.65366 38.399835-38.107266 38.399835z m0-236.762414c-19.017061 0-38.107265-19.236489-38.107265-38.399835s19.017061-38.399835 38.107265-38.399835 38.107265 19.163346 38.107266 38.399835-12.65366 38.399835-38.107266 38.399835zM858.121488 895.997806h-699.242717A157.914752 157.914752 0 0 1 0.013166 735.96192V25.601536C0.013166-57.634679 69.937437-127.997806 158.951913-127.997806h705.532976a157.914752 157.914752 0 0 1 158.938748 159.962743V735.96192C1017.060236 825.561536 947.135964 895.997806 858.121488 895.997806z m82.651074-864.032869a77.531096 77.531096 0 0 0-76.287673-76.799671H158.951913c-44.543809 0-76.287673 38.399835-76.287673 76.799671V736.035063c0 44.763237 38.107265 76.799671 76.287673 76.799671h705.532976c44.543809 0 76.287673-38.399835 76.287673-76.799671z m-197.046012 627.197312H432.285599c-25.453605 0-38.180408-19.163346-38.180408-38.399835s19.017061-38.399835 38.180408-38.399836h311.440951c19.017061 0 38.107265 19.236489 38.107265 38.399836s-19.017061 38.399835-38.107265 38.399835z m0-236.762414H432.285599c-25.453605 0-38.180408-19.236489-38.180408-38.399835s19.017061-38.399835 38.180408-38.399835h311.440951c19.017061 0 38.107265 19.163346 38.107265 38.399835s-19.017061 38.399835-38.107265 38.399835z m0-236.835556H432.285599c-19.090204 0-38.180408-19.163346-38.180408-38.399835s19.017061-38.399835 38.180408-38.399836h311.440951c19.017061 0 38.107265 19.236489 38.107265 38.399836 0 25.59989-19.017061 38.399835-38.107265 38.399835z"  horiz-adv-x="1024" />

    
    <glyph glyph-name="creat-custom-map" unicode="&#59066;" d="M770.925714-54.710857H253.074286a179.931429 179.931429 0 0 0-179.712 179.712V642.925714a179.931429 179.931429 0 0 0 179.712 179.712h251.392a50.176 50.176 0 1 0 0-100.425143H253.001143c-43.739429 0-79.286857-35.547429-79.286857-79.286857v-517.997714c0-43.739429 35.547429-79.286857 79.286857-79.286857h517.997714c43.739429 0 79.286857 35.547429 79.286857 79.286857V388.169143a50.176 50.176 0 1 0 100.425143 0v-263.168a179.931429 179.931429 0 0 0-179.712-179.712zM900.534857 552.374857H560.566857a50.176 50.176 0 0 0 0 100.352h339.968a50.249143 50.249143 0 0 0 0-100.352zM730.550857 382.390857a50.176 50.176 0 0 0-50.176 50.176V772.534857a50.176 50.176 0 1 0 100.352 0v-339.968a50.249143 50.249143 0 0 0-50.176-50.176z"  horiz-adv-x="1024" />

    
    <glyph glyph-name="custom-map" unicode="&#59067;" d="M936.5504 783.36L752.5376 830.72a28.0576 28.0576 0 0 1-19.7632-2.2272l-215.6288-110.08-198.4 92.288a28.0576 28.0576 0 0 1-23.0656 0.3072L82.176 718.1824c-11.8528-5.1456-19.6096-17.92-19.6096-32.0512v-653.5168c0-11.3664 4.992-22.016 13.4144-28.416 8.3968-6.4 19.0976-7.7312 28.5696-3.6352l201.9328 87.7824 199.3472-92.7744c3.7888-1.7408 7.8336-2.6368 11.8784-2.6368 4.3776 0 8.7552 1.0496 12.8512 3.1232l15.9744 8.1664-27.3408 61.696-2.048-1.0496-198.4 92.288a28.16 28.16 0 0 1-23.0656 0.3328L124.2112 82.944V662.6048l182.272 79.2576 199.3472-92.7488c7.936-3.712 16.896-3.5328 24.7296 0.4608l218.3424 111.4624 149.888-38.5536v-582.912l-29.0304 7.4496-14.6688-33.0752c-2.304-5.7856-4.864-11.52-7.6032-17.0752l-0.4608-1.1008-5.376-12.1088 81.0496-20.8384a28.416 28.416 0 0 1 26.112 6.6048c7.3728 6.5024 11.648 16.4096 11.648 26.9312V749.824c0 16.0256-9.9072 29.9008-23.9104 33.536zM287.8208 653.2864v-414.72c0-7.6032 8.5504-13.7472 19.0464-13.7472s19.0464 6.144 19.0464 13.7472v414.72c0 7.6032-8.5504 13.7728-19.0464 13.7728s-19.0464-6.1696-19.0464-13.7728z m210.8416-91.6224v-208.6912c0-7.6032 8.5504-13.7728 19.0464-13.7728s19.0464 6.144 19.0464 13.7728v208.6912c0 7.6032-8.5504 13.7984-19.0464 13.7984s-19.0464-6.1952-19.0464-13.7984z m270.08-130.9696V682.7008c0 7.6032-8.5248 13.7728-19.0464 13.7728-10.5472 0-19.0464-6.1696-19.0464-16.6144v-252.032c0-4.736 8.4992-10.9312 19.0464-10.9312 10.5216 0 19.072 6.1952 19.072 13.7728z m-178.5088-490.9056l81.408 59.904-63.8976 48.4352-17.5104-108.3392z m224.2304 285.4144l-66.4576 52.9664-132.9408-211.4048 69.12-55.4496 130.2784 213.888z m33.4848 86.3488s-17.792 15.2576-37.12 25.6768c-19.3024 10.4192-30.1312-6.144-30.1312-6.144l-23.552-38.0416 69.1712-53.1456s20.1472 32.8192 26.1888 43.8528c6.0416 11.0592-4.5568 27.8016-4.5568 27.8016z"  horiz-adv-x="1024" />

    
    <glyph glyph-name="color-change" unicode="&#59065;" d="M48.713143 471.771429h926.939428a49.005714 49.005714 0 1 1 30.134858 87.259428 48.859429 48.859429 0 0 1-10.386286 9.874286l-346.258286 245.028571a48.201143 48.201143 0 0 1-48.420571 4.388572 49.078857 49.078857 0 0 1-7.314286-84.48l232.009143-164.205715H48.64c-26.770286 0-48.493714-21.942857-48.493714-48.932571 0-27.062857 21.723429-48.932571 48.566857-48.932571z m926.939428-175.542858H48.64a48.274286 48.274286 0 0 1-34.304-14.336 49.152 49.152 0 0 1 4.242286-72.923428c2.852571-3.657143 6.290286-7.021714 10.24-9.874286l346.331428-245.028571a48.201143 48.201143 0 0 1 67.584 11.922285 49.225143 49.225143 0 0 1-11.849143 68.169143L198.875429 198.363429h776.777142c26.770286 0 48.493714 21.942857 48.493715 48.932571a48.713143 48.713143 0 0 1-48.493715 48.932571z"  horiz-adv-x="1055" />

    
    <glyph glyph-name="qq-zone" unicode="&#59063;" d="M512 896C229.0176 896 0 666.9824 0 384s229.0176-512 512-512 512 229.0176 512 512S794.9824 896 512 896z m354.1504-418.816l-183.6544-155.4944 6.2464-24.6784c-129.536-1.2288-215.0912 11.1104-215.0912 11.1104l213.8624 149.2992c-173.6192 35.7888-408.8832-6.144-390.0416-7.424 265.472-8.6528 273.0496-22.2208 273.0496-22.2208L357.888 278.528c293.12-18.5344 374.8864 19.712 374.8864 19.712s-20.1216-16.0256-38.9632-24.6784l44.032-182.5792c1.2288-3.6864-1.28-8.6528-3.7888-11.1104-2.56-1.2288-3.7888-2.4576-6.2976-2.4576s-3.7888 0-6.2976 1.2288l-208.8448 122.1632-208.8448-122.1632a11.6224 11.6224 0 0 0-12.544 0 9.8304 9.8304 0 0 0-3.7888 11.1104l55.3472 231.936L157.8496 477.184c-3.7888 2.4576-5.0176 7.424-3.7888 11.1104s5.0688 7.424 10.0864 7.424l242.7904 19.712L502.5792 736.256c1.2288 3.6864 6.2976 6.144 10.0352 6.144 5.0688 0 8.8064-2.4576 10.0864-6.144l94.3616-218.4192 242.7904-19.712c5.0176 0 8.8064-3.6864 10.0864-7.424 1.2288-3.6864 0-11.1104-3.7888-13.568z"  horiz-adv-x="1024" />

    
    <glyph glyph-name="sina-weibo" unicode="&#59064;" d="M399.872 280.064c-22.8352 0-43.8272-18.7904-44.1856-39.4752-0.3072-17.664 14.5408-31.1296 34.4576-31.1296 23.6544 0 43.52 17.8176 43.6224 39.2192 0.2048 18.2784-14.08 31.3856-33.9456 31.3856z m56.7296 15.7184c-6.7584-3.328-13.312-8.192-17.9712-14.1312-1.024-1.28 5.9392-8.8064 11.5712-16.896 7.2192 7.936 13.7728 12.4928 16.1792 18.688 1.024 2.6112-8.6528 12.9536-9.728 12.3392z m143.3088 89.8048a225.6896 225.6896 0 0 1-34.9696 17.5104c-40.448 16.1792-82.944 20.992-126.1056 17.2032-65.28-5.632-125.5424-24.8832-172.4416-73.3184-54.3744-56.064-47.0016-127.0784 16.9984-171.5712 43.3152-30.1056 92.5184-40.448 144.4864-39.168 9.4208 0 18.944-0.768 28.2624 0.1024 59.1872 5.632 113.664 23.6032 158.8224 63.6416 65.9968 58.368 59.392 138.8032-15.0528 185.6z m-73.216-164.9152c-22.4768-34.048-62.2592-54.7328-105.472-54.9376-54.4256-0.3584-95.2832 30.208-102.5536 77.824a79.2064 79.2064 0 0 0 1.0752 29.952c10.9568 46.6944 43.3152 72.7552 87.296 84.5312 43.4688 11.52 83.8656 3.9936 115.5072-30.5152 26.112-28.5696 27.1872-72.1408 4.096-106.8544zM512 896C229.2224 896 0 666.7776 0 384s229.2224-512 512-512c282.7264 0 512 229.2224 512 512 0 282.7264-229.2224 512-512 512z m244.1216-664.8832c-43.7248-67.2768-110.9504-100.6592-186.0096-119.04-36.352-8.96-74.24-11.7248-93.952-14.7456-93.0816 2.304-165.0688 16.0768-229.9904 56.4224-81.8176 50.8416-105.6768 127.0272-62.8736 213.4528 45.9264 92.672 117.4016 161.2288 211.2512 205.312 17.408 8.1408 37.2224 12.8 56.32 15.104 39.3728 4.9152 62.3104-17.408 61.3376-57.0368-0.2048-8.704-2.2016-17.2032-2.6624-25.9584-0.4096-7.424 0.1536-15.0528 0.3072-22.528 7.68 1.28 15.36 2.048 22.8864 3.7376 30.3104 6.5024 60.3136 17.3056 90.88 18.944 53.0944 2.816 76.8-29.2864 60.7232-79.7184-6.9632-21.4528-1.7408-28.672 18.2784-35.84 75.4688-27.2384 97.2288-90.9312 53.504-158.1056z m-39.5776 282.5728c-12.4928 15.872-40.8064 19.5072-49.7664 19.6096a23.9616 23.9616 0 0 0 0.1536 47.9744h0.2048c5.8368 0 58.368-1.536 87.04-37.9392 11.4176-14.4384 23.0912-40.0896 13.824-80.0256a24.0128 24.0128 0 1 0-46.6944 10.752c4.096 17.5104 2.4576 30.464-4.7616 39.6288zM857.7024 435.2a24.064 24.064 0 0 0-27.4432-19.968 23.9616 23.9616 0 0 0-19.968 27.4432c8.9088 56.576-0.1536 100.608-27.0336 130.7136-46.7968 52.4288-132.5568 49.3056-133.4272 49.3056a23.9616 23.9616 0 1 0-2.048 47.9232c4.4544 0.1536 109.4144 3.84 171.264-65.28 36.864-41.3696 49.8688-98.6112 38.656-170.1376z"  horiz-adv-x="1024" />

    
    <glyph glyph-name="copy" unicode="&#59062;" d="M639.872 639.68H192.384c-35.2 0-63.872-28.8-63.872-63.872v-575.36c0-35.2 28.8-64 63.872-64h447.488c35.2 0 63.936 28.8 63.936 64v575.36c0 35.072-28.8 63.872-63.936 63.872z m0-639.296H192.384v575.36h447.488v-575.36z m191.744 831.104H384.128c-35.2 0-63.936-28.8-63.936-63.872v-63.936h63.936v63.936h447.488v-575.36h-63.936v-64h63.936c35.2 0 63.872 28.8 63.872 64v575.36a64 64 0 0 1-63.872 63.872z"  horiz-adv-x="1024" />

    
    <glyph glyph-name="rename" unicode="&#59061;" d="M960 682.666667h-99.584v-99.584h49.834667v-398.165334h-49.834667V85.333333h99.584a49.749333 49.749333 0 0 1 49.749333 49.749334V632.917333a49.749333 49.749333 0 0 1-49.749333 49.749334z m-896-597.333334h497.749333V184.917333h-448V583.082667h448V682.666667H64a49.749333 49.749333 0 0 1-49.749333-49.749334v-497.834666c0-27.477333 22.186667-49.749333 49.749333-49.749334zM213.333333 483.584h348.416v-199.168H213.333333zM760.917333 681.472c0.597333 16.810667 10.922667 100.693333 149.333334 100.693333V881.834667c-98.901333 0-161.28-33.28-198.826667-75.178667C674.133333 848.384 611.584 881.749333 512 881.749333v-99.498666c139.349333 0 148.821333-83.626667 149.333333-99.584v-597.248c0-4.096-1.877333-99.669333-149.333333-99.669334v-99.498666c99.669333 0 162.133333 33.450667 199.68 75.52 2.389333-2.730667 4.352-5.546667 7.082667-8.277334 44.458667-44.629333 108.885333-67.242667 191.488-67.242666v99.498666c-139.52 0-148.906667 83.456-149.333334 99.498667z"  horiz-adv-x="1024" />

    
    <glyph glyph-name="display-list" unicode="&#59059;" d="M0 79.274667h256V-42.666667H0z m384 0h256V-42.666667h-256z m384 0h256V-42.666667H768zM0 323.072h256v-121.941333H0z m384 0h256v-121.941333h-256z m384 0h256v-121.941333H768zM512 688.64L0 444.928V566.869333L512 810.666667z m512-243.797333L512 688.725333V810.666667l512-243.797334z"  horiz-adv-x="1024" />

    
    <glyph glyph-name="hide-list" unicode="&#59060;" d="M0 688.725333h256V810.666667H0z m384 0h256V810.666667h-256z m384 0h256V810.666667H768zM0 444.928h256V566.869333H0z m384 0h256V566.869333h-256z m384 0h256V566.869333H768zM512 79.36L0 323.072v-121.941333L512-42.666667z m512 243.797333L512 79.274667V-42.666667l512 243.797334z"  horiz-adv-x="1024" />

    
    <glyph glyph-name="traffic" unicode="&#59056;" d="M512 691.2c-84.8384 0-153.6-49.664-153.6-110.9504v-443.6992C358.4 75.264 427.1616 25.6 512 25.6s153.6 49.664 153.6 110.9504V580.2496C665.6 641.536 596.8384 691.2 512 691.2z m0 102.4c141.3632 0 256-97.4336 256-217.6v-435.2c0-120.1664-114.6368-217.6-256-217.6s-256 97.4336-256 217.6v435.2C256 696.1664 370.6368 793.6 512 793.6zM512 563.2m-76.8 0a76.8 76.8 0 1 1 153.6 0 76.8 76.8 0 1 1-153.6 0ZM512 358.4m-76.8 0a76.8 76.8 0 1 1 153.6 0 76.8 76.8 0 1 1-153.6 0ZM512 153.6m-76.8 0a76.8 76.8 0 1 1 153.6 0 76.8 76.8 0 1 1-153.6 0Z"  horiz-adv-x="1024" />

    
    <glyph glyph-name="full-figure" unicode="&#59057;" d="M260.608 640C229.8368 640 204.8 614.5536 204.8 583.1168v-398.2336C204.8 153.4464 229.7856 128 260.608 128h502.784c30.8224 0 55.808 25.4464 55.808 56.8832V583.168C819.2 614.5536 794.2144 640 763.392 640z m5.632 102.4h491.52C848.2304 742.4 921.6 668.3648 921.6 577.024v-386.048c0-91.3408-73.3696-165.376-163.84-165.376H266.24C175.7696 25.6 102.4 99.6352 102.4 190.976V577.024C102.4 668.3136 175.7696 742.4 266.24 742.4zM323.8912 418.6624a35.84 35.84 0 0 0-35.84 35.4304V525.0048a35.84 35.84 0 0 0 35.84 35.4304l71.68-0.6144c19.6096 0 35.7888-15.36 35.7888-34.816s-16.1792-35.4304-35.84-35.4304h-35.84v-35.4816a35.84 35.84 0 0 0-35.7888-35.4304z m71.68-212.6848h-71.68a35.84 35.84 0 0 0-35.84 35.4816V312.32a35.84 35.84 0 0 0 71.68 0v-35.4304h35.84c19.6096 0 35.7888-16.0256 35.7888-35.4304s-16.1792-35.4816-35.84-35.4816z m310.3744 212.6848a35.84 35.84 0 0 0-35.84 35.4304v35.4816h-35.7888c-19.6608 0-35.84 15.9744-35.84 35.4304s16.1792 35.4304 35.84 35.4304h71.68a35.84 35.84 0 0 0 35.7888-35.4304v-70.912a35.84 35.84 0 0 0-35.84-35.4304z m0-212.6848H634.368c-19.6608 0-35.84 16.0256-35.84 35.4816s16.1792 35.4304 35.84 35.4304h35.84V312.32a35.84 35.84 0 0 0 71.6288 0v-70.8608a35.84 35.84 0 0 0-35.84-35.4816z"  horiz-adv-x="1024" />

    
    <glyph glyph-name="measure" unicode="&#59058;" d="M129.1264 203.008a102.2976 102.2976 0 0 0-0.2048 144.5888l434.8416 434.8416a101.9904 101.9904 0 0 0 144.5888-0.2048l217.2416-217.2416c39.9872-39.936 40.0384-104.7552 0.2048-144.5888L491.008-14.4384a101.9904 101.9904 0 0 0-144.5888 0.2048z m108.288 36.5056l145.4592-145.4592a51.2512 51.2512 0 0 1 72.192 0.4096l361.8304 361.8304a51.2512 51.2512 0 0 1 0.4096 72.192l-145.4592 145.4592a51.2512 51.2512 0 0 1-72.192-0.4096l-361.8304-361.8304a51.2512 51.2512 0 0 1-0.4096-72.192zM247.9616 326.9632l36.1984 36.1984 108.6464-108.5952-36.2496-36.2496zM320.3584 399.36l36.1984 36.1984 144.8448-144.7936-36.1984-36.1984z m72.448 72.3968l36.1984 36.1984L537.6 399.36l-36.1984-36.1984zM537.6 616.6016l36.1984 36.1984 108.5952-108.6464-36.1984-36.1984zM465.2032 544.1536l36.1984 36.2496 144.7936-144.8448-36.1984-36.1984z"  horiz-adv-x="1024" />

    
    <glyph glyph-name="mark" unicode="&#59055;" d="M256 18.651429a51.346286 51.346286 0 0 0-44.397714 25.380571L7.68 394.386286c-14.116571 24.137143-5.485714 54.857143 19.017143 68.681143s55.881143 5.412571 69.924571-18.724572l170.496-293.156571 628.516572 619.154285a51.931429 51.931429 0 0 0 72.411428 0.073143 49.737143 49.737143 0 0 0 0.146286-71.168L294.619429 35.84l-2.413715-2.413714a51.638857 51.638857 0 0 0-36.205714-14.628572z"  horiz-adv-x="1024" />

    
    <glyph glyph-name="close" unicode="&#59054;" d="M641.365333 384l355.413334-355.328c36.010667-36.010667 36.437333-93.866667 0.426666-129.877333a91.733333 91.733333 0 0 0-129.877333 0.426666L512 254.634667l-355.328-355.413334c-36.010667-36.010667-93.866667-36.437333-129.877333-0.426666a91.733333 91.733333 0 0 0 0.426666 129.877333L382.634667 384 27.221333 739.328A91.648 91.648 0 0 0 26.794667 869.205333a91.733333 91.733333 0 0 0 129.877333-0.426666L512 513.365333 867.328 868.778667a91.648 91.648 0 0 0 129.877333 0.426666 91.733333 91.733333 0 0 0-0.426666-129.877333z"  horiz-adv-x="1024" />

    
    <glyph glyph-name="fold" unicode="&#59050;" d="M512-128A512 512 0 1 1 512 896a512 512 0 0 1 0-1024zM273.578667 424.277333l195.413333 158.293334A67.925333 67.925333 0 0 0 512 596.906667c15.530667 0 31.146667-4.693333 43.008-14.336l195.413333-158.293334c23.466667-19.114667 23.466667-50.005333 0-69.12a70.570667 70.570667 0 0 0-85.333333 0L512 479.232 358.912 355.157333a70.656 70.656 0 0 0-85.333333 0c-23.466667 19.114667-23.466667 50.005333 0 69.12z"  horiz-adv-x="1024" />

    
    <glyph glyph-name="label-delete" unicode="&#59051;" d="M874.069333 817.152H689.152c0 35.669333-27.050667 78.677333-60.586667 78.677333H416.938667c-33.450667 0-60.586667-43.008-60.586667-78.677333H171.52c-40.874667 0-85.845333-6.229333-85.845333-48.042667v-64.768H938.666667v64.768c0 41.813333-23.637333 48.042667-64.512 48.042667zM161.024 628.650667v-616.362667c0-62.634667 60.074667-139.093333 121.344-139.093333h480.768c61.269333 0 101.461333 76.458667 101.461333 139.093333V628.650667z m202.069333-629.248h-74.069333V544.853333h74.069333z m185.344 0H474.453333V544.853333h73.984z m185.429334 0h-74.069334V544.853333H733.866667z"  horiz-adv-x="1024" />

    
    <glyph glyph-name="upload" unicode="&#59052;" d="M952.027429 76.8c-32.182857 0-58.294857 25.014857-58.294858 55.881143 0 30.793143 26.112 55.808 58.294858 55.808 96.548571 0 174.811429 75.044571 174.811428 167.570286a164.132571 164.132571 0 0 1-70.582857 134.290285l-0.731429 0.585143a181.394286 181.394286 0 0 1-11.702857 7.533714l-1.901714 1.097143a181.613714 181.613714 0 0 1-11.410286 6.070857l-3.218285 1.462858a188.854857 188.854857 0 0 1-10.971429 4.681142l-4.827429 1.682286a186.221714 186.221714 0 0 1-10.093714 3.291429c-2.267429 0.658286-4.608 1.097143-6.875428 1.682285-2.925714 0.731429-5.851429 1.462857-8.850286 2.048-3.218286 0.585143-6.436571 0.950857-9.654857 1.389715-2.267429 0.292571-4.534857 0.731429-6.875429 0.950857a186.368 186.368 0 0 1-17.115428 0.804571c-1.828571 0-3.657143-0.219429-5.412572-0.219428a295.204571 295.204571 0 0 1-6.656 28.086857c-0.658286 2.267429-1.462857 4.388571-2.194286 6.656-2.194286 7.021714-4.388571 13.897143-7.094857 20.699428-0.804571 2.048-1.828571 4.022857-2.633143 6.070858a326.217143 326.217143 0 0 1-9.216 20.333714c-0.731429 1.609143-1.755429 3.145143-2.56 4.681143a318.976 318.976 0 0 1-11.629714 20.48c-57.636571 92.16-162.669714 153.892571-282.916571 153.892571-120.32 0-225.28-61.805714-282.916572-153.892571-4.169143-6.656-7.972571-13.531429-11.702857-20.48-0.731429-1.536-1.682286-3.072-2.486857-4.681143a316.708571 316.708571 0 0 1-9.216-20.333714c-0.804571-2.048-1.828571-4.022857-2.633143-6.070858a300.105143 300.105143 0 0 1-7.094857-20.699428l-2.194286-6.582857a294.619429 294.619429 0 0 1-6.582857-28.16c-1.901714 0-3.657143 0.219429-5.485714 0.219428-5.778286 0-11.483429-0.292571-17.115429-0.804571-2.340571-0.219429-4.608-0.658286-6.875428-0.950857-3.218286-0.438857-6.436571-0.804571-9.654857-1.462857-2.925714-0.512-5.851429-1.243429-8.777143-1.974858-2.340571-0.585143-4.681143-1.024-6.948572-1.682285a186.660571 186.660571 0 0 1-10.093714-3.291429l-4.900571-1.682286c-3.657143-1.462857-7.314286-2.925714-10.898286-4.608l-3.218286-1.462857a173.860571 173.860571 0 0 1-11.410286-6.144l-1.901714-1.097143a185.563429 185.563429 0 0 1-11.702857-7.533714l-0.731429-0.585143a164.205714 164.205714 0 0 1-70.582857-134.290285c0-92.525714 78.262857-167.497143 174.811429-167.497143 32.182857 0 58.294857-25.088 58.294857-55.881143 0-30.866286-26.112-55.881143-58.294857-55.881143C130.486857 76.8 0 201.874286 0 356.059429c0 125.805714 86.820571 232.155429 206.262857 267.117714C270.994286 782.628571 432.274286 896 621.714286 896s350.646857-113.371429 415.524571-272.822857C1156.608 588.214857 1243.428571 481.865143 1243.428571 356.059429c0-154.185143-130.486857-279.259429-291.401142-279.259429zM403.529143 207.286857l0.073143 0.073143 0.146285 0.146286L578.413714 393.508571l0.146286-0.146285a59.099429 59.099429 0 0 0 86.308571 0l0.146286 0.146285 174.665143-185.929142v-0.073143l0.219429-0.146286c8.118857-8.704 13.458286-19.748571 14.628571-32.036571v-0.146286a48.420571 48.420571 0 0 0 0.365714-5.12c0-30.939429-26.112-55.954286-58.294857-55.954286h-1.901714l-1.170286 0.073143-1.243428 0.073143-1.901715 0.219428h-0.731428l-2.486857 0.365715a58.806857 58.806857 0 0 0-33.938286 17.773714L680.009143 210.505143v-282.624c0-30.866286-26.112-55.881143-58.294857-55.881143-32.182857 0-58.294857 25.014857-58.294857 55.881143V210.505143l-73.216-77.970286a58.587429 58.587429 0 0 0-33.865143-17.700571c-0.877714-0.219429-1.682286-0.292571-2.56-0.365715a13.677714 13.677714 0 0 0-0.731429-0.073142l-1.901714-0.219429h-1.243429l-1.097143-0.073143h-1.974857a58.660571 58.660571 0 0 0-51.2 29.184 53.686857 53.686857 0 0 0 7.899429 64z"  horiz-adv-x="1243" />

    
    <glyph glyph-name="unfold" unicode="&#59053;" d="M512 896a512 512 0 1 0 0-1024A512 512 0 0 0 512 896zM273.578667 343.722667l195.413333-158.293334A67.925333 67.925333 0 0 1 512 171.093333a68.010667 68.010667 0 0 1 43.008 14.336l195.413333 158.293334c23.466667 19.114667 23.466667 50.005333 0 69.12a70.570667 70.570667 0 0 1-85.333333 0L512 288.768 358.912 412.842667a70.656 70.656 0 0 1-85.333333 0c-23.466667-19.114667-23.466667-50.005333 0-69.12z"  horiz-adv-x="1024" />

    
    <glyph glyph-name="poi-load" unicode="&#59048;" d="M212.333714 566.857143h438.345143c21.942857 0 36.571429 14.628571 36.571429 36.571428s-14.628571 36.571429-36.571429 36.571429H212.333714c-21.942857 0-36.571429-14.628571-36.571428-36.571429s14.628571-36.571429 36.571428-36.571428zM687.250286 384c0 21.942857-14.628571 36.571429-36.571429 36.571429H212.333714c-21.942857 0-36.571429-14.628571-36.571428-36.571429s14.628571-36.571429 36.571428-36.571429h438.345143c21.942857 0 36.571429 14.628571 36.571429 36.571429zM212.333714 201.142857c-21.942857 0-36.571429-14.628571-36.571428-36.571428s14.628571-36.571429 36.571428-36.571429h255.707429c21.942857 0 36.571429 14.628571 36.571428 36.571429s-14.628571 36.571429-36.571428 36.571428zM1008.64 157.257143c-14.555429 14.628571-36.498286 14.628571-51.053714 0l-80.457143-80.457143V749.714286c0 80.457143-65.682286 146.285714-146.066286 146.285714H146.578286C66.194286 896 0.438857 830.171429 0.438857 749.714286v-731.428572c0-80.457143 65.828571-146.285714 146.139429-146.285714h504.100571c21.942857 0 36.571429 14.628571 36.571429 36.571429s-14.628571 36.571429-36.571429 36.571428H146.578286c-43.885714 0-73.069714 36.571429-73.069715 73.142857V749.714286c0 43.885714 36.571429 73.142857 73.069715 73.142857h584.484571c43.885714 0 73.069714-29.257143 73.069714-73.142857v-680.228572l-80.384 80.457143c-14.628571 14.628571-36.571429 14.628571-51.126857 0-14.628571-14.628571-14.628571-36.571429 0-51.2l146.139429-146.285714s7.314286-7.314286 14.628571-7.314286h29.257143c7.241143 0 7.241143 7.314286 14.555429 7.314286l146.139428 146.285714c-7.314286 14.628571-7.314286 43.885714-14.628571 58.514286z"  horiz-adv-x="1024" />

    
    <glyph glyph-name="poi-save" unicode="&#59049;" d="M867.693714 822.272H229.449143c-86.016 0-155.794286-69.705143-155.794286-155.794286v-638.683428c0-86.089143 69.778286-155.794286 155.794286-155.794286h638.244571c86.016 0 155.794286 69.705143 155.794286 155.794286V666.550857c0 86.016-69.778286 155.794286-155.794286 155.794286z m-584.850285-68.022857h531.456v-237.494857c0-32.109714-33.206857-58.221714-74.020572-58.221715H356.864c-40.813714 0-74.020571 26.112-74.020571 58.221715z m672.548571-725.942857c0-48.493714-39.204571-87.698286-87.771429-87.698286H229.522286a87.625143 87.625143 0 0 0-87.698286 87.771429V666.477714c0 43.52 31.597714 79.506286 72.996571 86.016v-236.324571c0-69.705143 63.707429-126.317714 142.116572-126.317714h383.414857c78.409143 0 142.116571 56.612571 142.116571 126.317714V753.152c41.398857-7.094857 72.996571-43.081143 72.996572-86.089143zM705.974857 509.732571a33.645714 33.645714 0 0 1 33.718857 33.718858V660.553143a33.645714 33.645714 0 0 1-33.718857 33.792 34.084571 34.084571 0 0 1-34.377143-33.792v-117.028572a34.742857 34.742857 0 0 1 34.377143-33.792z"  horiz-adv-x="1024" />

    
    <glyph glyph-name="first" unicode="&#59044;" d="M284.444444 611.555556h56.888889v-512H284.444444z m426.496-511.317334a29.411556 29.411556 0 0 0-18.204444 6.428445L410.624 333.482667a29.127111 29.127111 0 0 0 0 45.340444l280.803556 225.678222a29.070222 29.070222 0 0 0 36.408888-45.340444l-252.586666-202.979556 253.838222-204.231111a29.070222 29.070222 0 0 0-18.204444-51.712z"  horiz-adv-x="1024" />

    
    <glyph glyph-name="next" unicode="&#59045;" d="M370.403556 100.92088899999999a29.411556 29.411556 0 0 1 18.204444 6.428444l282.055111 226.816a29.127111 29.127111 0 0 1 0 45.340445L389.859556 605.127111a29.070222 29.070222 0 0 1-36.408889-45.283555l252.586666-202.979556-253.838222-204.231111a29.070222 29.070222 0 0 1 18.204445-51.712z"  horiz-adv-x="1024" />

    
    <glyph glyph-name="last" unicode="&#59046;" d="M709.518222 611.555556a28.444444 28.444444 0 0 0 28.444445-28.444445v-455.111111a28.444444 28.444444 0 1 0-56.888889 0v455.111111a28.444444 28.444444 0 0 0 28.444444 28.444445z m-395.946666-511.317334a29.070222 29.070222 0 0 0-18.204445 51.712l253.838222 204.231111-252.586666 202.979556a29.070222 29.070222 0 0 0 36.352 45.340444l280.803555-225.678222a29.013333 29.013333 0 0 0 0-45.340444l-281.998222-226.816a29.411556 29.411556 0 0 0-18.204444-6.428445z"  horiz-adv-x="1024" />

    
    <glyph glyph-name="prev" unicode="&#59047;" d="M652.458667 100.92088899999999a29.411556 29.411556 0 0 0-18.204445 6.428444L352.142222 334.16533300000003a29.127111 29.127111 0 0 0 0 45.340445l280.803556 225.621333a29.070222 29.070222 0 0 0 36.408889-45.283555l-252.586667-202.979556 253.838222-204.231111a29.070222 29.070222 0 0 0-18.204444-51.712z"  horiz-adv-x="1024" />

    
    <glyph glyph-name="zoomin" unicode="&#59042;" d="M585.142857 457.142857h365.714286v-146.285714H585.142857v-365.714286H438.857143V310.857143H73.142857V457.142857h365.714286V822.857143h146.285714z"  horiz-adv-x="1024" />

    
    <glyph glyph-name="zoomout" unicode="&#59043;" d="M73.142857 457.142857h877.714286v-146.285714H73.142857z"  horiz-adv-x="1024" />

    
    <glyph glyph-name="error" unicode="&#59039;" d="M512-128A512 512 0 1 0 512 896a512 512 0 0 0 0-1024z m0 227.584A56.917333 56.917333 0 1 1 512 213.333333a56.917333 56.917333 0 0 1 0-113.749333z m0 568.832a56.917333 56.917333 0 0 1-56.917333-56.832v-284.501333a56.917333 56.917333 0 0 1 113.834666 0V611.584A56.917333 56.917333 0 0 1 512 668.416z"  horiz-adv-x="1024" />

    
    <glyph glyph-name="backhomepage" unicode="&#58969;" d="M729.248 48.128h-139.968a19.84 19.84 0 0 0-19.84 19.84v269.12a18.048 18.048 0 0 1-18.048 18.016h-76.736a18.048 18.048 0 0 1-18.048-18.016v-269.12a19.84 19.84 0 0 0-19.84-19.84H292.48a58.464 58.464 0 0 0-58.464 58.464v247.36a13.44 13.44 0 0 1-13.44 13.44H183.744c-34.4 0-51.872 41.28-27.968 65.984l328.32 339.04a38.912 38.912 0 0 0 55.648 0.32L872.512 436.48c25.376-25.6 7.2-69.12-28.832-69.12H804.16a14.464 14.464 0 0 1-14.464-14.464v-244.352a60.48 60.48 0 0 0-60.48-60.48z m-85.664 49.888h71.968c13.408 0 24.256 10.88 24.256 24.256v270.208c0 13.696 11.104 24.8 24.8 24.8h46.496a4.288 4.288 0 0 1 3.04 7.296L523.968 717.76a16.384 16.384 0 0 1-23.424-0.128l-290.88-300.384h49.472c13.696 0 24.8-11.104 24.8-24.8v-270.208c0-13.408 10.88-24.256 24.256-24.256h74.24c13.44 0 24.32 10.88 24.32 24.256V334.72c0 38.848 31.456 70.304 70.272 70.304h72c38.816 0 70.304-31.456 70.304-70.304v-212.416c0-13.408 10.88-24.256 24.256-24.256z"  horiz-adv-x="1024" />

    
    <glyph glyph-name="MyMaps" unicode="&#58970;" d="M830.592 728.576c-5.152 0-10.432-0.864-15.584-2.816l-172.896-62.816a45.248 45.248 0 0 0-15.584-2.72c-5.76 0-11.456 1.056-16.864 3.264l-195.2 78.112a45.6 45.6 0 0 1-32.448 0.512L177.984 667.968a45.44 45.44 0 0 1-29.92-42.784v-540.16a45.504 45.504 0 0 1 60.992-42.688l172.896 62.848c4.992 1.824 10.304 2.688 15.552 2.688 5.76 0 11.488-1.056 16.896-3.2l195.2-78.176a45.248 45.248 0 0 1 32.48-0.512l203.968 74.208a45.44 45.44 0 0 1 29.92 42.784V683.104c0 25.952-21.344 45.472-45.44 45.472zM193.472 84.928V625.152l182.016 66.144v-540.736a83.936 83.936 0 0 1-9.088-2.816z m227.52 65.28V689.888l171.776-68.672c3.392-1.312 6.816-2.464 10.24-3.424v-539.68l-171.776 68.672a70.24 70.24 0 0 1-10.24 3.424z m409.504-7.36l-181.984-66.144V617.44c3.04 0.8 6.112 1.664 9.088 2.816l172.896 62.816z"  horiz-adv-x="1024" />

    
    <glyph glyph-name="CreateMap" unicode="&#58971;" d="M512 736C300.032 736 128 563.968 128 352s172.032-384 384-384 384 172.032 384 384S723.968 736 512 736z m0-714.24c-182.016 0-330.24 148.224-330.24 330.24S329.984 682.24 512 682.24 842.24 534.784 842.24 352 694.016 21.76 512 21.76zM667.136 385.792h-121.344v121.344c0 14.592-12.288 26.88-26.88 26.88s-26.88-12.288-26.88-26.88v-121.344h-121.344c-14.592 0-26.88-12.288-26.88-26.88s12.288-26.88 26.88-26.88h121.344v-121.344c0-14.592 12.288-26.88 26.88-26.88s26.88 12.288 26.88 26.88v121.344h121.344c14.592 0 26.88 12.288 26.88 26.88s-12.288 26.88-26.88 26.88z"  horiz-adv-x="1024" />

    
    <glyph glyph-name="feedback" unicode="&#58972;" d="M410.304 152.896l-175.648-138.688v138.688h-28.448a64 64 0 0 0-64 64V643.52a64 64 0 0 0 64 64h611.584a64 64 0 0 0 64-64v-426.656a64 64 0 0 0-64-64z m-7.36 46.208h400.64a32 32 0 0 1 32 32V629.344a32 32 0 0 1-32 32H220.416a32 32 0 0 1-32-32v-398.24a32 32 0 0 1 32-32h28.448a32 32 0 0 0 32-32v-55.808l102.208 80.896a32 32 0 0 0 19.84 6.912zM280.896 384h462.208v-46.208H280.896z m0 138.656h462.208v-46.208H280.896z"  horiz-adv-x="1024" />

    
    <glyph glyph-name="skin1" unicode="&#58973;" d="M740.192 780v-56l142.816-141.408-79.808-79.776a55.2 55.2 0 0 1-37.792 13.984 56.768 56.768 0 0 1-57.408-57.408v-295.392c0-30.816-25.184-56-56-56h-280c-30.784 0-56 25.184-56 56v295.392a56.768 56.768 0 0 1-57.408 57.408c-13.984 0-28-5.6-37.792-14.016L140.992 582.592l141.408 141.408h35.008l1.408-1.408C358.016 663.808 432.192 625.984 512 625.984s154.016 36.416 193.184 96.64c0 1.376 1.408 1.376 1.408 1.376h33.6z m-421.376 0H288c-19.584 0-33.6-5.6-43.392-16.8L101.76 621.792c-22.4-22.4-22.4-57.408 0-78.4L184.416 460.8c9.792-9.792 23.776-15.392 36.384-15.392s26.592 5.6 36.416 15.392h1.376c1.408 0 1.408 0 1.408-1.408v-295.392a112.32 112.32 0 0 1 112-112h280a112.32 112.32 0 0 1 112 112v295.392c0 1.408 0 1.408 1.408 1.408h1.376c9.824-9.792 23.808-15.392 36.416-15.392 13.984 0 26.592 5.6 36.384 15.392l82.624 82.592c22.4 22.4 22.4 57.408 0 78.4L780.8 763.2a56.064 56.064 0 0 1-40.608 16.8h-35.008c-19.584 0-36.384-9.792-47.584-26.592-29.408-43.424-84-71.424-147.008-71.424s-117.6 29.44-147.008 71.424c-8.384 16.8-26.56 26.592-44.8 26.592zM384 480h128v-160h-128z"  horiz-adv-x="1024" />

    
    <glyph glyph-name="Shape-" unicode="&#58974;" d="M613.632 839.36c14.528 18.432 21.696 15.04 15.808-8L555.392 540.48 798.784 467.2c11.2-3.328 14.592-13.632 7.488-23.04l-387.52-516.096c-14.144-18.944-20.864-15.808-14.912 7.104L482.24 236.8 200.96 286.272c-11.584 2.048-15.168 11.072-7.744 20.48z"  horiz-adv-x="1024" />

    
    <glyph glyph-name="account" unicode="&#58975;" d="M847.68 661.44c17.6 0 31.872-14.272 31.872-31.84v-491.2c0-17.568-14.272-31.872-31.872-31.872H176.32a31.904 31.904 0 0 0-31.872 31.872V629.6c0 17.568 14.272 31.872 31.872 31.872z m0 52.512H176.32a84.384 84.384 0 0 1-84.384-84.352v-491.2A84.384 84.384 0 0 1 176.32 54.08h671.36a84.384 84.384 0 0 1 84.384 84.352V629.6A84.384 84.384 0 0 1 847.68 713.92zM812.448 537.76c0-14.432-11.84-26.24-26.24-26.24h-172.48c-14.432 0-26.24 11.808-26.24 26.24s11.808 26.24 26.24 26.24h172.48c14.4 0 26.24-11.84 26.24-26.24z m0-123.744c0-14.432-11.84-26.24-26.24-26.24h-116.96a26.336 26.336 0 0 0-26.24 26.24c0 14.432 11.808 26.24 26.24 26.24h116.928c14.464 0 26.24-11.808 26.24-26.24z m0-123.744c0-14.4-11.84-26.24-26.24-26.24h-65.76c-14.432 0-26.24 11.84-26.24 26.24s11.808 26.24 26.24 26.24h65.728c14.464 0 26.24-11.776 26.24-26.24zM481.024 374.08a187.52 187.52 0 0 0 106.464-169.152h-52.512a134.112 134.112 0 0 1-39.552 95.456 134.016 134.016 0 0 1-88.896 39.392 114.176 114.176 0 0 0-13.12 0c-33.6-1.6-64.96-15.424-88.896-39.36a134.112 134.112 0 0 1-39.52-95.488H212.48a187.52 187.52 0 0 0 106.464 169.12 112.512 112.512 0 1 0 162.08 0z m-141.056 78.016c0-31.232 24-56.96 54.464-59.744a190.112 190.112 0 0 0 11.072 0 60.064 60.064 0 0 1 54.464 59.744c0 33.056-26.88 60-60 60s-60-26.944-60-60z"  horiz-adv-x="1024" />

    
    <glyph glyph-name="Shape-1" unicode="&#58976;" d="M823.232 512H704V672c0 17.6-14.4 32-32 32h-576c-17.6 0-32-14.4-32-32v-448c0-17.6 14.4-32 32-32H128c0-70.4 57.6-128 128-128s128 57.6 128 128h256c0-70.4 57.6-128 128-128s128 57.6 128 128h32c17.6 0 32 14.4 32 32V314.432c0 3.2-0.832 6.4-2.368 8.768l-120.832 181.568A15.744 15.744 0 0 1 823.232 512zM268.8 129.6a64 64 0 1 0-24.768 125.632 64 64 0 0 0 75.2-75.2c-5.632-25.6-25.6-45.632-50.432-50.432z m512 0a64 64 0 1 0-24.768 125.632 64 64 0 0 0 75.136-75.2c-5.568-25.6-25.6-45.632-50.368-50.432zM704 320V448h95.232c5.568 0 10.368-2.368 12.8-7.232L896 320z"  horiz-adv-x="1024" />

    
    <glyph glyph-name="Shape-2" unicode="&#58977;" d="M928 512a32 32 0 0 0-14.08 3.2L544 704 174.08 516.48A32.896 32.896 0 0 0 145.92 576L544 773.12 942.08 576a32.768 32.768 0 0 0-14.08-64zM384 192H192v-192h192z m256 0H448v-192h192z m256 0h-192v-192h192z m-128 256H576v-192h192zM512 448H320v-192h192z"  horiz-adv-x="1024" />

    
    <glyph glyph-name="Shape-3" unicode="&#58978;" d="M696.32 360.448c0-26.624-4.928-51.52-14.848-74.752s-23.552-43.52-40.96-60.928-37.76-31.04-60.928-40.96-48.128-14.848-74.752-14.848-51.52 4.928-74.752 14.848-43.52 23.552-60.928 40.96-31.04 37.76-40.96 60.928-14.848 48.128-14.848 74.752 4.928 51.52 14.848 74.752 23.552 43.52 40.96 60.928 37.76 31.04 60.928 40.96 48.128 14.848 74.752 14.848 51.52-4.928 74.752-14.848 43.52-23.552 60.928-40.96 31.04-37.76 40.96-60.928 14.848-48.128 14.848-74.752z m64.512-377.856c0-7.488-3.072-14.336-9.216-20.48s-14.016-11.456-23.552-15.872-20.8-8-33.792-10.752-25.92-4.096-38.912-4.096H347.136c-11.584 0-23.232 1.344-34.816 4.096s-22.016 6.336-31.232 10.752-16.704 9.728-22.528 15.872-8.704 12.992-8.704 20.48z m9.216 865.28c29.376 0 50.688-8.512 64-25.6s19.968-37.568 19.968-61.44v-657.408c0-23.872-8.512-44.352-25.6-61.44s-38.592-25.6-64.512-25.6H245.76c-26.624 0-48.128 8.512-64.512 25.6s-24.576 37.568-24.576 61.44V760.832c0 23.872 7.488 44.16 22.528 60.928s35.52 25.088 61.44 25.088zM225.28 728.064c0-7.488 2.56-14.528 7.68-20.992s13.44-9.728 25.088-9.728h77.824c11.584 0 20.16 3.904 25.6 11.776s8.192 15.552 8.192 23.04v15.36c0 7.488-3.072 14.336-9.216 20.48s-14.72 9.216-25.6 9.216H260.096c-11.584 0-20.288-3.2-26.112-9.728s-8.704-13.44-8.704-20.992z m279.552-623.616c35.52 0 68.8 6.656 99.84 19.968s58.24 31.552 81.408 54.784 41.472 50.368 54.784 81.408a250.752 250.752 0 0 1 19.968 99.84c0 34.816-6.656 67.776-19.968 98.816s-31.552 58.24-54.784 81.408-50.368 41.472-81.408 54.784-64.32 19.968-99.84 19.968c-34.816 0-67.776-6.656-98.816-19.968s-58.24-31.552-81.408-54.784-41.472-50.368-54.784-81.408-19.968-64-19.968-98.816c0-35.52 6.656-68.8 19.968-99.84 13.312-31.04 31.552-58.24 54.784-81.408s50.368-41.472 81.408-54.784 64-19.968 98.816-19.968z"  horiz-adv-x="1024" />

    
    <glyph glyph-name="Shape-4" unicode="&#58979;" d="M677.76 184.768a18.752 18.752 0 0 0-5.184 12.544c0 9.472 7.68 17.216 17.088 17.344h100.416c9.6 0 17.344 7.808 17.344 17.408a17.984 17.984 0 0 1-5.504 12.48L652.8 394.496a20.928 20.928 0 0 0-4.288 11.84 17.408 17.408 0 0 0 17.28 17.28h79.36c9.6 0.128 17.344 7.936 17.344 17.536a17.28 17.28 0 0 1-5.312 12.416L608.576 602.432l-0.96 0.96a17.408 17.408 0 0 0 12.608 29.248h60.16c9.6 0 17.28 7.808 17.28 17.472a17.152 17.152 0 0 1-4.672 11.392h0.384L557.76 825.088A17.28 17.28 0 0 1 543.872 832a17.28 17.28 0 0 1-13.888-6.912L394.88 661.504a17.152 17.152 0 0 1-4.736-11.392c0-9.6 7.744-17.408 17.344-17.408h60.16a16.832 16.832 0 0 0 12.8-29.248l-1.024-1.024-148.48-148.864a17.28 17.28 0 0 1-5.376-12.416c0-9.536 7.616-17.28 17.088-17.472h79.488a17.28 17.28 0 0 0 17.344-17.344 20.928 20.928 0 0 0-4.352-11.84L285.824 244.48a17.984 17.984 0 0 1-5.696-12.48c0-9.6 7.808-17.408 17.344-17.408h100.672a17.408 17.408 0 0 0 17.216-17.28 18.752 18.752 0 0 0-5.12-12.608l-148.544-148.48-0.64-0.64a17.28 17.28 0 0 1 0-24.448 17.728 17.728 0 0 1 12.48-5.504h235.648V-64l69.376 0.576v69.12h235.392a18.304 18.304 0 0 1 18.048 17.664 17.28 17.28 0 0 1-4.928 12.352z"  horiz-adv-x="1024" />

    
    <glyph glyph-name="Shape-5" unicode="&#58980;" d="M294.144 327.104l1.344-1.664 154.56-164.928c33.92-39.936 90.688-39.936 125.12 0.512l153.6 164.864 3.776 4.032 2.24 2.432A146.688 146.688 0 0 1 768 427.584a148.48 148.48 0 0 1-256 102.272 148.48 148.48 0 0 1-256-102.272c0-37.12 14.08-73.408 38.144-100.48zM512-32a416 416 0 1 0 0 832 416 416 0 0 0 0-832z"  horiz-adv-x="1024" />

    
    <glyph glyph-name="Shape-6" unicode="&#58981;" d="M608 320a22.4 22.4 0 0 0 0-44.8H534.4v-19.2a22.4 22.4 0 1 0-44.8 0v19.2H416a22.4 22.4 0 1 0 0 44.8h73.6v51.2H416a22.4 22.4 0 0 0 0 44.8h64.384l-0.256 0.192-64 64a22.4 22.4 0 0 0 31.744 31.68l64-64L512 447.616l0.192 0.256 64 64a22.4 22.4 0 1 0 31.616-31.68l-64-64-0.192-0.192H608a22.4 22.4 0 0 0 0-44.8H534.4V320z m256 160h32V640.192A64 64 0 0 1 831.936 704H192.064A64 64 0 0 1 128 640.192V480h32C212.928 480 256 436.928 256 384s-43.072-96-96-96H128v-160.192A64 64 0 0 1 192.064 64h639.872A64 64 0 0 1 896 127.808V288h-32c-52.928 0-96 43.072-96 96s43.072 96 96 96z"  horiz-adv-x="1024" />

    
    <glyph glyph-name="Shape-7" unicode="&#58982;" d="M164.992 287.36c-23.68-42.816-67.136-120.832 9.664-172.992 24.128-16.192 51.2-27.456 79.552-33.024 21.632-3.2 22.72-37.12-2.688-36.288-27.072 1.408-158.912 13.824-180.096 114.432-10.944 58.752 1.408 111.36 35.456 168.512l49.024 88.128L64 469.312l244.8 147.968v-286.08L216.96 380.8z m298.56 470.528c81.216 44.928 128.192-30.72 154.048-72l56.704-90.368-89.024-57.792 251.008-134.016-13.824 288-88.96-57.728-53.44 84.992c-36.672 53.376-63.552 92.8-129.024 110.528-115.2 22.4-185.92-113.472-185.216-112.576-11.52-20.48 15.168-38.592 31.744-15.04a221.184 221.184 0 0 0 65.92 56z m463.744-442.496c-6.144 13.568-38.592 10.112-29.44-19.136 9.216-27.84 12.928-57.216 11.008-86.528-6.528-93.824-94.784-93.12-142.912-93.12H660.48v107.264l-246.208-143.04L659.584-64l0.384 109.056h105.984c62.656-1.088 112.512 12.608 154.752 51.008 84.416 75.904 6.592 219.328 6.592 219.328z"  horiz-adv-x="1024" />

    
    <glyph glyph-name="Shape-8" unicode="&#58983;" d="M490.176 634.24c10.304 0 19.328-3.712 27.136-11.008s11.584-16.384 11.584-27.072c0-10.688-3.84-19.712-11.584-27.072s-16.832-10.944-27.136-10.944a37.824 37.824 0 0 0-38.784 38.016c0 10.688 3.712 19.712 11.2 27.072s16.64 10.944 27.52 10.944zM192 384c0 29.312 1.984 57.6 6.016 84.928 4.032 27.328 10.048 53.696 18.112 79.04l647.104-353.28a478.464 478.464 0 0 0-54.272-104.832 401.6 401.6 0 0 0-74.112-81.6c-27.52-22.784-57.6-40.576-90.048-53.248A275.84 275.84 0 0 0 543.552-64c-48.256 0-93.76 11.712-136.576 35.072s-80.128 55.36-112 96-56.96 88-75.392 142.4A541.504 541.504 0 0 0 192 384z m672.96 183.424c9.792-28.16 17.408-57.6 22.848-88.32S896 416.64 896 384c0-50.688-6.592-99.456-19.84-146.24L604.8 386.56zM564.224 408.512L231.68 590.272c14.4 36.032 32.448 68.864 54.336 98.432s46.08 54.976 72.768 76.096 55.68 37.632 87.04 49.472C477.12 826.112 509.696 832 543.552 832c32.768 0 64.064-5.376 93.952-16a322.56 322.56 0 0 0 84.032-45.312c26.112-19.392 49.792-42.816 71.04-70.144 21.248-27.328 39.68-57.6 55.168-90.88L562.496 411.072z m-11.2 57.472L736.64 586.88a237.44 237.44 0 0 1-38.784 71.04 177.408 177.408 0 0 1-24.96 26.176 189.568 189.568 0 0 1-33.216 22.784 179.52 179.52 0 0 1-41.344 16.064 200.832 200.832 0 0 1-50.368 5.952c-17.28 0-33.088-2.112-47.36-6.4a191.104 191.104 0 0 1-72.896-39.68 299.584 299.584 0 0 1-27.136-26.624 287.488 287.488 0 0 1-46.528-71.872z m44.8 168.192a37.824 37.824 0 0 0 38.784-38.016 37.824 37.824 0 0 0-38.784-38.016 37.824 37.824 0 0 0-38.72 38.016c0 10.688 3.712 19.712 11.2 27.072s16.64 10.944 27.52 10.944z"  horiz-adv-x="1024" />

    
    <glyph glyph-name="Shape-9" unicode="&#58984;" d="M631.808 623.616c0-35.52-6.336-68.928-18.944-100.352s-29.504-58.88-50.688-82.432-45.568-42.176-73.216-55.808-56.832-20.48-87.552-20.48S341.312 371.008 313.344 384s-52.544 31.232-73.728 54.784-38.08 51.52-50.688 83.968-18.944 68.096-18.944 107.008c0 30.72 6.144 59.904 18.432 87.552A245.76 245.76 0 0 0 310.272 841.216c27.328 12.608 56.32 18.944 87.04 18.944s60.096-6.656 88.064-19.968 52.928-30.912 74.752-52.736 39.232-46.912 52.224-75.264 19.456-57.856 19.456-88.576z m-271.36-330.752l-1.024-363.52 36.864 48.128 38.912-48.128v363.52zM604.16 811.008c14.336-17.088 27.328-35.52 38.912-55.296 9.6-17.088 18.432-36.48 26.624-58.368s12.288-44.736 12.288-68.608c-1.344-41.6-5.952-76.48-13.824-104.448s-16.576-50.56-26.112-67.584c-11.584-19.84-24.256-35.52-37.888-47.104 19.84 2.048 39.616 5.12 59.392 9.216 17.088 3.392 35.52 7.872 55.296 13.312s38.592 12.992 56.32 22.528c15.68 8.192 30.528 18.944 44.544 32.256s25.92 29.184 35.84 47.616 16.896 39.04 20.992 61.952 4.096 48.32 0 76.288c-4.096 28.672-16 54.272-35.84 76.8s-43.328 40.448-70.656 53.76-55.808 21.12-85.504 23.552-56.512-2.88-80.384-15.872z m1.024-458.752L604.16 5.12l35.84 47.104 38.912-47.104V352.256z"  horiz-adv-x="1024" />

    
    <glyph glyph-name="Shape-10" unicode="&#58985;" d="M256.512 832l-64-352c-9.344-51.52 113.984-75.584 112-128l-16-416c-2.432-64 64-64 64-64s66.432 0 64 64l-16 416c-1.984 52.352 110.912 75.52 112 128l-64 352h-32l16-256-48-32-16 288h-32l-16-288-48 32 16 256z m544 0c-47.104 0-125.696-41.92-157.12-104.768-26.24-47.104-34.88-152.384-34.88-215.232v-160c0-52.352 69.76-64 96-64l-32-352c-5.76-63.744 64-64 64-64s64 0 64 64z"  horiz-adv-x="1024" />

    
    <glyph glyph-name="Shape-11" unicode="&#58986;" d="M513.664 525.312a117.12 117.12 0 0 0 116.928 116.992c64.512 0 116.928-52.48 116.928-116.992S695.04 408.32 630.592 408.32a117.12 117.12 0 0 0-116.928 116.992m377.6 171.712c0 36.8-29.824 66.688-65.344 66.688h-0.064C824.704 763.712 709.248 768 622.08 768c-100.416 0-109.44-4.864-120.32-15.744L346.688 596.928 147.52 397.696a67.072 67.072 0 0 1 0.128-94.72l283.2-283.328c12.672-12.672 29.44-19.648 47.424-19.648 17.92 0 34.688 6.912 47.168 19.456l221.568 221.696 132.8 132.928c11.712 11.648 22.72 22.72 11.52 322.944"  horiz-adv-x="1024" />

    
    <glyph glyph-name="Shape-12" unicode="&#58987;" d="M839.936 506.688c0 179.84-147.008 325.76-328.576 325.76-181.44 0-328.512-145.92-328.512-325.76 0-59.52 16.256-115.008 44.288-162.944h-0.384l284.608-407.36 284.672 407.36h-0.384c28.16 48 44.288 103.488 44.288 162.944M511.424 343.808a163.584 163.584 0 0 0-164.288 162.88 163.648 163.648 0 0 0 164.288 162.944 163.584 163.584 0 0 0 164.288-162.944A163.52 163.52 0 0 0 511.36 343.808"  horiz-adv-x="1024" />

    
    <glyph glyph-name="Shape-13" unicode="&#58988;" d="M940.8 480V128a64 64 0 0 0-64-64h-704a64 64 0 0 0-64 64V480a32 32 0 0 0 32 32 31.36 31.36 0 0 0 13.44 0l370.56-256L896 512a31.232 31.232 0 0 0 12.8 0 32 32 0 0 0 32-32zM124.8 645.12l5.12-5.12L524.8 384l396.16 256h3.84a31.36 31.36 0 0 1 16 32 32 32 0 0 1-32 32h-768a32 32 0 0 1-32-32 31.36 31.36 0 0 1 16-26.88z"  horiz-adv-x="1024" />

    
    <glyph glyph-name="Shape-14" unicode="&#58989;" d="M188.16 412.224c10.624 2.752 78.208 32 88.896 34.752-28.48 31.68-49.6 73.152-76.096 133.76-35.072-8.768-95.936-26.88-95.936-26.88S183.808 420.48 188.16 412.16z m391.04-113.536l72.448-81.92c124.16 41.856 289.472 207.36 289.472 207.36L858.048 508.8S777.024 383.36 579.2 298.688zM429.824 460.224l67.008-35.2c62.912 62.848 115.2 162.304 115.2 162.304l-104.512 39.04s-40.96-113.152-77.696-166.144z m231.552-30.336c104.96 51.84 246.784 228.736 246.784 228.736L826.176 736s-118.656-174.912-231.168-233.664z m-49.408-257.472L420.16 273.664H608.64v111.36H411.648v51.392H283.136v-51.392H69.12v-111.36H231.68c-48.32-65.408-72.832-92.992-162.56-148.352l65.728-97.28c81.28 59.968 112.832 97.536 148.224 142.848v-196.992h128.512V170.88l140.48-82.048z m265.984 121.536s-89.472-160-356.416-233.28l39.04-86.784c265.472 64.768 376.32 205.632 399.168 228.16z m-563.2 171.968s81.28-0.576 94.528 0c-9.28 49.344-11.456 70.912-18.88 132.48l-113.856-18.24c15.68-37.824 30.72-65.984 38.272-114.24z m288.896 208.128l-32.448 113.536s-78.144-70.272-484.352-78.08l4.928-93.824c482.112-9.728 511.872 58.368 511.872 58.368z"  horiz-adv-x="1024" />

    
    <glyph glyph-name="Shape-15" unicode="&#58990;" d="M835.2 554.688h-582.4c-70.72 0-124.8-55.488-124.8-128v-256h166.4V0h499.2v170.688H960v256c0 72.512-54.144 128-124.8 128z m-124.8-469.376H377.6V298.624h332.8zM835.2 384c-24.96 0-41.6 17.088-41.6 42.688s16.64 42.624 41.6 42.624 41.6-17.024 41.6-42.624-16.64-42.688-41.6-42.688z m-41.6 384H294.4v-170.688h499.2z"  horiz-adv-x="1024" />

    
    <glyph glyph-name="Shape-16" unicode="&#58991;" d="M921.6 650.56l-24.96 22.016 21.312 24.448a35.584 35.584 0 0 1 3.584 50.368l-37.76 42.88a36.096 36.096 0 0 1-50.688 3.2l-301.44-233.6A303.232 303.232 0 0 1 203.264 512c-126.592-111.232-140.16-303.744-30.336-430.08 109.76-126.208 301.44-138.432 427.968-27.2a306.816 306.816 0 0 1 74.112 363.776l48.896 56 30.208-26.88c10.816-9.6 27.84-7.68 38.016 4.224l29.632 34.752c10.24 11.968 9.728 29.504-1.088 39.168l-29.312 26.112 37.632 43.2 27.008-23.68c10.88-9.6 27.84-7.552 37.952 4.608l29.12 35.2c10.112 12.16 9.408 29.76-1.472 39.36z m-511.488-509.696a106.176 106.176 0 0 0-150.528 9.6 107.776 107.776 0 0 0 10.752 151.36 106.176 106.176 0 0 0 150.528-9.6 107.776 107.776 0 0 0-10.752-151.36z"  horiz-adv-x="1024" />

    
    <glyph glyph-name="Shape-17" unicode="&#58992;" d="M960 576h-256v-224a128 128 0 0 1 96-123.52V0H768a32 32 0 0 1 0-64h128a32 32 0 0 1 0 64h-32v228.48A128 128 0 0 1 960 352v3.84z m-64-224a64 64 0 1 0-128 0V512h128z m-480 320V704a32 32 0 0 1 0 64v32A32 32 0 0 1 384 832H320a32 32 0 0 1-32-32V768a32 32 0 0 1 0-64v-32C288 580.48 128 475.52 128 384v-384a64 64 0 0 1 64-64h320a70.4 70.4 0 0 1 64 64V384c0 86.4-160 201.6-160 288z m-64-608a160 160 0 1 0 0 320 160 160 0 0 0 0-320z"  horiz-adv-x="1024" />

    
    </font>
</defs>
</svg>
